<?xml version="1.0" standalone="no"?><!DOCTYPE svg PUBLIC "-//W3C//DTD SVG 1.1//EN" "http://www.w3.org/Graphics/SVG/1.1/DTD/svg11.dtd"><svg t="1769139025120" class="icon" viewBox="0 0 1024 1024" version="1.1" xmlns="http://www.w3.org/2000/svg" p-id="1822" xmlns:xlink="http://www.w3.org/1999/xlink" width="200" height="200"><path d="M881.393071 69.104891H150.665465c-41.748846 0-75.592652 33.843806-75.592652 75.592652v730.727607c0 41.748846 33.843806 75.592652 75.592652 75.592652h730.727606c41.748846 0 75.592652-33.843806 75.592653-75.592652V144.697543c0-41.748846-33.844829-75.592652-75.592653-75.592652zM373.874129 422.738024c2.62171-6.675026 8.836249-10.745738 15.98916-10.486842 7.184633 0.258896 13.075807 4.757351 15.227819 11.603269l8.318456 26.51591c2.103918 6.699586 7.783267 11.150968 14.790868 11.579733l27.738761 1.707898c7.169283 0.445138 12.94687 5.089925 14.904455 11.992125 1.973958 6.894014-0.48607 13.901615-6.311753 18.060331l-22.655999 16.1007c-5.729491 4.061502-8.188496 10.842952-6.440689 17.655102l6.958482 26.89658c1.779529 6.942109-0.841158 13.884218-6.7968 17.898649-5.954619 3.998057-13.367449 3.818979-19.128662-0.452302l-22.332635-16.57142c-5.632277-4.175089-12.849656-4.433986-18.772552-0.663103l-23.433712 14.920828c-6.051833 3.850701-13.46364 3.495614-19.128663-0.938372-5.632277-4.417613-7.767917-11.522428-5.469571-18.320251l8.852621-26.346041c2.232854-6.650467 0.242524-13.5936-5.162579-18.060331l-21.442358-17.680685c-5.53404-4.563946-7.476275-11.732206-5.016247-18.46556 2.460028-6.740518 8.56098-10.963703 15.746635-10.891048l27.770484 0.283456c7.02295 0.072655 13.011338-3.957125 15.59928-10.495028l10.195199-25.843598zM247.548002 275.92326c1.683339-4.579295 5.826705-7.444553 10.69662-7.395434l18.886139 0.193405c4.757351 0.049119 8.835226-2.686179 10.583033-7.128351l6.92676-17.567097c1.780553-4.5312 6.004761-7.29822 10.874675-7.120165 4.870938 0.178055 8.885368 3.228531 10.341532 7.881504l5.64865 18.012236c1.424442 4.555759 5.291516 7.582699 10.066263 7.873318l18.837021 1.157359c4.855588 0.306992 8.803503 3.462868 10.130731 8.147564 1.343601 4.685719-0.323365 9.451256-4.304026 12.267395l-15.374152 10.940166c-3.89982 2.76702-5.582135 7.380084-4.38589 11.992126l4.709255 18.287505c1.230014 4.717442-0.551562 9.434883-4.595668 12.153808-4.046153 2.727111-9.096169 2.605338-13.011339-0.298806l-15.148001-11.255345c-3.851725-2.840698-8.739035-3.01773-12.767792-0.453324l-15.924691 10.138917c-4.110621 2.613524-9.143241 2.371-12.994965-0.639566-3.818979-3.001357-5.275143-7.833409-3.722788-12.452613l6.02011-17.890462c1.521656-4.523013 0.161682-9.241478-3.511987-12.282745l-14.564717-12.007475c-3.770883-3.110851-5.081739-7.973602-3.414773-12.55392z m246.908437 522.047844c-115.53127 0-215.496006-65.785286-265.048586-161.832806 39.599903 28.708855 88.11792 45.830815 140.761908 45.830815 132.702348 0 240.288668-107.585297 240.288668-240.288668 0-112.457258-77.372182-206.603475-181.690062-232.796021 21.150716-4.758374 43.079144-7.492648 65.687048-7.492648 164.729785 0 298.289664 133.544529 298.290687 298.289664 0 164.728762-133.559878 298.289664-298.289663 298.289664z" fill="" p-id="1823"></path><path d="M150.665465 69.104891h730.727606c41.748846 0 75.592652 33.843806 75.592653 75.592652v730.727607c0 41.748846-33.843806 75.592652-75.592653 75.592652H150.665465c-41.748846 0-75.592652-33.843806-75.592652-75.592652V144.697543c0-41.748846 33.843806-75.592652 75.592652-75.592652z" fill="#5F4B8B" p-id="1824" data-spm-anchor-id="a313x.manage_type_mylikes.0.i16.1ec33a81HFwMET" class="selected"></path><path d="M494.456439 201.391776c164.729785 0 298.289664 133.544529 298.290686 298.289664 0 164.728762-133.559878 298.289664-298.289663 298.289664-115.532293 0-215.496006-65.785286-265.048585-161.832806 39.599903 28.708855 88.11792 45.830815 140.761907 45.830815 132.702348 0 240.289692-107.585297 240.289692-240.288668 0-112.457258-77.372182-206.603475-181.690062-232.796021 21.148669-4.758374 43.078121-7.492648 65.686025-7.492648zM348.078627 459.077673c7.02295 0.072655 13.011338-3.957125 15.599279-10.495028l10.196223-25.844621c2.62171-6.675026 8.836249-10.744715 15.98916-10.486842 7.184633 0.258896 13.075807 4.757351 15.227819 11.603269l8.318456 26.51591c2.103918 6.699586 7.78429 11.150968 14.791891 11.579733l27.738762 1.706875c7.169283 0.445138 12.945847 5.089925 14.904454 11.992125 1.973958 6.894014-0.48607 13.901615-6.311752 18.060331L441.875896 509.811148c-5.729491 4.061502-8.188496 10.842952-6.440689 17.656125l6.959505 26.89658c1.779529 6.942109-0.841158 13.884218-6.796799 17.898649-5.954619 3.998057-13.367449 3.818979-19.128663-0.452301l-22.332635-16.571421c-5.632277-4.175089-12.849656-4.433986-18.772552-0.663102l-23.433712 14.920827c-6.051833 3.850701-13.46364 3.495614-19.128663-0.938371-5.631254-4.418636-7.767917-11.522428-5.469571-18.320251l8.852622-26.346042c2.232854-6.650467 0.242524-13.5936-5.16258-18.060331l-21.442358-17.680684c-5.53404-4.563946-7.476275-11.733229-5.016247-18.465561 2.460028-6.740518 8.56098-10.963703 15.746636-10.891047l27.768437 0.283455z m-97.116875-170.603562c-3.770883-3.107781-5.081739-7.970532-3.414773-12.550851 1.683339-4.579295 5.826705-7.444553 10.69662-7.395434l18.886139 0.194428c4.757351 0.049119 8.835226-2.686179 10.583033-7.128351l6.926759-17.567097c1.780553-4.5312 6.003737-7.29822 10.874675-7.120165 4.870938 0.178055 8.885368 3.228531 10.341533 7.881505l5.64865 18.012235c1.424442 4.555759 5.291516 7.582699 10.066263 7.873318l18.837021 1.156336c4.855588 0.306992 8.803503 3.462868 10.130731 8.148587 1.343601 4.685719-0.323365 9.451256-4.304026 12.267395l-15.374152 10.940167c-3.89982 2.76702-5.582135 7.380084-4.385891 11.992125l4.709256 18.287505c1.230014 4.717442-0.551562 9.434883-4.595669 12.153808-4.046153 2.727111-9.096169 2.605338-13.011338-0.298806l-15.148002-11.255344c-3.851725-2.840698-8.739035-3.01773-12.767791-0.453325l-15.924691 10.138918c-4.110621 2.613524-9.143241 2.371-12.994965-0.638543-3.818979-3.001357-5.275143-7.832386-3.722788-12.452613l6.02011-17.890463c1.521656-4.523013 0.161682-9.241478-3.511987-12.283767l-14.564717-12.011568z" fill="#FFD500" p-id="1825" data-spm-anchor-id="a313x.manage_type_mylikes.0.i14.1ec33a81HFwMET" class=""></path></svg>