<?xml version="1.0" standalone="no"?><!DOCTYPE svg PUBLIC "-//W3C//DTD SVG 1.1//EN" "http://www.w3.org/Graphics/SVG/1.1/DTD/svg11.dtd"><svg t="1768296235735" class="icon" viewBox="0 0 1185 1024" version="1.1" xmlns="http://www.w3.org/2000/svg" p-id="19605" data-spm-anchor-id="a313x.search_index.0.i38.27c13a81IlOpse" xmlns:xlink="http://www.w3.org/1999/xlink" width="231.4453125" height="200"><path d="M309.233809 308.537604a246.145728 246.145728 0 0 0-33.432684 65.932155 305.974974 305.974974 0 0 0-13.983364 71.54624 387.416222 387.416222 0 0 0 1.821985 75.990106 640.212935 640.212935 0 0 0 14.812886 79.04156 324.668837 324.668837 0 0 0 56.585225 118.503088 340.296431 340.296431 0 0 0 216.579207 131.834686q66.317291 11.524425 135.078708-5.717774a790.341535 790.341535 0 0 0 77.649148-23.700618 425.12983 425.12983 0 0 0 69.946448-32.588349 308.952364 308.952364 0 0 0 58.9701-44.6016 220.44537 220.44537 0 0 0 43.742452-60.110692 385.668301 385.668301 0 0 1-33.240116 110.40044 403.962216 403.962216 0 0 1-63.280649 96.076379 394.659723 394.659723 0 0 1-88.877317 74.360688 390.497302 390.497302 0 0 1-110.637446 46.216204q-79.826643 20.012209-157.312849 7.510134a395.755877 395.755877 0 0 1-255.522285-153.105991q-47.564177-62.421502-67.576386-142.203706a390.497302 390.497302 0 0 1-11.435548-119.362235 394.659723 394.659723 0 0 1 23.700618-113.451895 403.962216 403.962216 0 0 1 54.807678-101.11276 385.668301 385.668301 0 0 1 81.663441-81.367183zM81.515312 310.10777l23.478424 44.34978 47.756745 9.554312-33.254929 36.958151 6.043657 50.260122-44.023897-21.582375-44.03871 21.508311 6.043657-50.260123-33.254929-36.958151 47.78637-9.554311z" p-id="19606" data-spm-anchor-id="a313x.search_index.0.i39.27c13a81IlOpse" class="selected" fill="#FFD500"></path><path d="M577.984001 420.967409l5.7474 59.48855 48.230757 32.188402-53.32639 25.581854-16.146046 58.066513-38.706071-43.653575-58.229455 3.673596 29.477643-52.600559-19.819642-55.770516 56.851857 11.168916zM816.975105 358.412591l33.891883 37.032215 48.55664-2.814448-22.871096 44.1424 18.516108 47.119791-48.03819-9.717254-37.135905 31.906957-6.754676-50.171245-41.476081-27.389026 43.816517-21.286118zM81.530125 184.198238H96.580017v174.214353H81.530125zM200.433161 173.829218h25.181906V432.240015h-25.181906z" p-id="19607" data-spm-anchor-id="a313x.search_index.0.i40.27c13a81IlOpse" class="" fill="#FFD500"></path><path d="M514.584849 173.829218h18.308727v305.189891h-18.308727zM839.105556 180.598707h18.279102v214.446151h-18.279102z" p-id="19608" data-spm-anchor-id="a313x.search_index.0.i41.27c13a81IlOpse" class="" fill="#FFD500"></path><path d="M967.562904 184.198238a247.715893 247.715893 0 0 0-351.16909-82.063389 247.686268 247.686268 0 0 0-419.812003 30.633049 105.867697 105.867697 0 0 0-178.71747 51.43034z" p-id="19609" data-spm-anchor-id="a313x.search_index.0.i35.27c13a81IlOpse" class="" fill="#5F4B8B"></path></svg>