<?xml version="1.0" standalone="no"?><!DOCTYPE svg PUBLIC "-//W3C//DTD SVG 1.1//EN" "http://www.w3.org/Graphics/SVG/1.1/DTD/svg11.dtd"><svg t="1769138933892" class="icon" viewBox="0 0 1124 1024" version="1.1" xmlns="http://www.w3.org/2000/svg" p-id="814" xmlns:xlink="http://www.w3.org/1999/xlink" width="219.53125" height="200"><path d="M62.972006 336.007343c80.359798 0 239.199633 21.617256 309.220743-38.065168 20.677375-17.387793 26.316659-49.813676 38.535108-70.960991a220.87196 220.87196 0 0 1 127.823772-156.960073q30.546122 46.994034 56.392841 97.74759c103.856815 132.053235 184.686553 57.802662 321.909133 93.988068q102.446994-35.245525 80.359798 87.878844-27.25654 13.15833-53.573199 28.19642a346.815971 346.815971 0 0 1-29.136301 30.546122c-55.9229 69.08123-36.655346 149.441028-12.688389 229.330886 21.147315 70.491051 150.380909 217.582377-7.519046 234.97017-56.862781 6.579165-151.320789-100.097292-210.063332-115.605324a246.718678 246.718678 0 0 0-213.822854 44.174392c-29.136301 18.797614-61.562184 60.152363-91.168426 77.070216-386.760899 221.81184-124.06425-168.708582-59.682423-272.095457 0-2.819642 7.519045-11.278568 2.819642-15.038091a2127.889858 2127.889858 0 0 1-281.964204-285.253786c-10.338687-12.688389-46.994034 16.447912-37.125287 29.136301 71.900872 87.408903 258.467187 218.052318 247.188619 333.657641-8.928866 93.988068-109.496099 243.429096-135.342818 341.646627 0 2.819642 0 7.519045 3.759523 8.458926a231.210647 231.210647 0 0 0 192.675539-51.693437c26.316659-17.857733 46.994034-42.294631 71.900872-60.152364 197.844883-140.982102 273.975218-105.736576 426.705828-28.66636 84.589261 42.764571 167.298761 80.359798 203.484168-22.087196 20.207435-57.802662-26.316659-133.463056-46.994034-185.156494-67.671409-178.107389-74.250574-135.342818 76.130335-310.160624 22.087196-25.846719 83.64938-35.245525 81.769619-83.649381S1033.868747 227.921065 1003.792565 225.571363c-93.988068-6.579165-203.014227 35.245525-294.182652-11.748508-82.7095-43.234511-109.966039-148.501147-173.407986-211.003213-7.988986-7.988986-24.906838 3.289582-30.076181 9.398807A628.780174 628.780174 0 0 0 422.946306 120.304727 505.655805 505.655805 0 0 0 375.952272 234.97017a439.394218 439.394218 0 0 1-286.663607 66.731528c-14.568151 0-46.994034 33.835704-24.906838 34.305645z" p-id="815" data-spm-anchor-id="a313x.manage_type_mylikes.0.i0.1ec33a81HFwMET" class="selected" fill="#FFD500"></path></svg>