<?xml version="1.0" standalone="no"?><!DOCTYPE svg PUBLIC "-//W3C//DTD SVG 1.1//EN" "http://www.w3.org/Graphics/SVG/1.1/DTD/svg11.dtd"><svg t="1769139065220" class="icon" viewBox="0 0 1026 1024" version="1.1" xmlns="http://www.w3.org/2000/svg" p-id="2177" data-spm-anchor-id="a313x.manage_type_mylikes.0.i18.1ec33a81HFwMET" xmlns:xlink="http://www.w3.org/1999/xlink" width="200.390625" height="200"><path d="M317.60384 408.32512c6.44096-20.92032 27.36128-41.84064 43.45344-53.10976 8.04864-4.82816 14.48448-8.04864 22.53312-12.8768-33.80224-11.264-46.67392-38.62528-65.98656-64.37376-9.65632 19.31264-22.528 37.01248-40.23296 49.88928-8.04864 4.82816-17.70496 9.65632-25.74848 16.09216 33.792 11.26912 45.06112 38.62528 65.98144 64.37888z" p-id="2178" data-spm-anchor-id="a313x.manage_type_mylikes.0.i22.1ec33a81HFwMET" class="" fill="#FFD500"></path><path d="M516.15744 23.04512c-276.4032 0-500.48 224.07168-500.48 500.47488 0 276.40832 224.07168 500.48 500.48 500.48s500.48-224.07168 500.48-500.48c-0.00512-276.4032-224.07168-500.47488-500.48-500.47488zM214.6048 356.82304c-6.44096 0-14.48448-1.60768-20.92544-1.60768-3.21536 0-6.43584-4.82816-8.04352-8.04864v-6.43584c1.60768-4.82816 3.21536-8.04864 8.04352-9.65632 6.44096 0 12.8768-1.6128 19.31264-1.6128 14.48448-3.21536 28.96896-8.04864 40.23296-14.48448 33.79712-20.92032 43.45344-49.88928 53.10976-94.9504 1.60768-1.60768 3.22048-3.22048 6.43584-4.82816 6.43584 0 11.26912 0 12.8768 3.22048 4.82816 6.43584 3.21536 20.92032 6.43584 28.96896 4.82816 14.48448 11.264 28.96896 19.31264 40.23296 12.87168 17.70496 33.79712 32.18944 56.32512 38.62528 12.87168 1.60768 24.1408 4.82816 37.01248 6.43584 4.82816 4.82816 4.82816 11.264 3.21536 17.70496-9.65632 8.04352-17.70496 4.82816-32.18432 8.04352-25.7536 6.43584-48.2816 19.31264-62.76608 37.0176-9.65632 12.8768-16.09728 28.96896-20.92032 48.2816-3.22048 11.264 0 22.528-9.65632 27.36128h-8.04864c-3.21536-1.6128-6.43584-3.22048-8.04352-6.43584-1.6128-9.65632-4.83328-20.92032-6.44096-30.58176-8.04352-24.1408-22.528-46.6688-41.84064-59.5456-11.25888-8.04352-27.35104-14.48448-43.4432-17.70496z m474.76736 392.69376c-8.04864 6.43584-16.09728 14.47936-24.1408 20.92032-20.92544 14.48448-45.06112 28.97408-70.81472 38.62528-85.29408 33.80224-189.90592 14.48448-260.72064-16.09728-16.09216-8.04352-67.59424-30.58176-70.8096-46.6688-3.22048-8.04352 3.21536-16.09728 6.43584-19.30752 11.264-1.6128 22.53312-4.82816 33.79712-6.44096 22.53312-4.82304 46.6688-11.264 67.59424-19.30752 74.03008-28.96896 133.73952-81.408 165.92384-153.8304 38.62528-86.90688 27.20256-180.92032-11.42272-259.78368-6.43584-14.48448-37.01248-61.15328-19.31264-72.4224 9.65632-6.43584 24.1408 0 32.18944 3.22048 30.57664 11.264 54.71744 22.528 78.85824 37.01248 96.5632 59.5456 170.59328 143.23712 170.59328 296.12544l-43.3152 0.43008c7.20384-92.98944-41.472-178.56-102.15936-230.05696-21.84704-18.53952-40.192-31.93856-70.76864-41.59488 6.43584 14.48448 7.20384 19.6608 12.81536 34.5856 9.6768 25.74336 17.57184 52.84352 20.1984 83.98336 13.52704 160.2816-57.84576 261.23776-156.0832 312.86272-26.17344 13.75744-51.98848 25.58976-70.272 30.47424-11.32032 3.03616-29.7728 9.0112-29.7728 9.0112 35.35872 19.15392 150.13888 46.1568 225.77664 18.80064 19.31264-6.44096 34.33472-12.61568 50.42688-22.272 4.82816-3.21536 11.78624-6.54848 11.78624-6.54848 17.70496 0 41.9328 0.22528 59.63264 0.22528-1.60768 3.2256-4.82816 4.83328-6.43584 8.05376z m202.78272-61.16352c-65.98656 22.53312-107.8272-17.69984-157.71648-28.96896-38.62528-8.04352-54.72256 9.66144-78.86336 16.09728-4.82816-8.04864-20.92032-20.92544-17.70496-28.96896 8.04352-4.82304 17.70496-9.65632 27.36128-14.47936 12.87168-3.2256 24.1408-4.82816 35.4048-8.04352 61.1584 0 85.2992 27.35616 133.5808 37.01248 25.74336 4.82304 65.98144-12.8768 70.81472-11.26912 6.43072 9.65632 11.25888 17.69984 19.30752 24.14592h-1.60768c-8.04864 8.04352-19.31264 11.25888-30.57664 14.47424z" p-id="2179" data-spm-anchor-id="a313x.manage_type_mylikes.0.i19.1ec33a81HFwMET" class="" fill="#5F4B8B"></path></svg>