<?xml version="1.0" standalone="no"?><!DOCTYPE svg PUBLIC "-//W3C//DTD SVG 1.1//EN" "http://www.w3.org/Graphics/SVG/1.1/DTD/svg11.dtd"><svg t="1768294548208" class="icon" viewBox="0 0 1024 1024" version="1.1" xmlns="http://www.w3.org/2000/svg" p-id="31385" xmlns:xlink="http://www.w3.org/1999/xlink" width="200" height="200"><path d="M836.733023 0C903.992558 0 958.511628 54.578605 958.511628 121.903628v422.605395c0 13.463814-10.903814 24.379535-24.355721 24.379535s-24.355721-10.915721-24.355721-24.379535V121.903628c0-40.394419-32.711442-73.141581-73.064186-73.141581H187.264c-40.352744 0-73.064186 32.747163-73.064186 73.141581v780.192744c0 40.394419 32.711442 73.141581 73.064186 73.141581H512c13.451907 0 24.355721 10.915721 24.355721 24.379535 0 13.466791-10.903814 24.382512-24.355721 24.382512H187.266977C120.007442 1024 65.488372 969.421395 65.488372 902.096372V121.903628C65.488372 54.578605 120.010419 0 187.266977 0h649.466046z" p-id="31386" fill="#5F4B8B"></path><path d="M739.72093 601.302326c94.529488 0 171.162791 76.633302 171.162791 171.16279S834.250419 943.627907 739.72093 943.627907 568.55814 866.994605 568.55814 772.465116s76.633302-171.162791 171.16279-171.16279z m0 48.90493c-67.521488 0-122.25786 54.736372-122.25786 122.25786 0 67.521488 54.736372 122.25786 122.25786 122.257861 67.521488 0 122.25786-54.736372 122.257861-122.257861 0-67.521488-54.736372-122.25786-122.257861-122.25786z" p-id="31387" fill="#5F4B8B"></path><path d="M836.265674 869.188465a24.400372 24.400372 0 0 1 34.449861 0l81.253209 81.13414a24.314047 24.314047 0 0 1-0.595349 33.803907 24.400372 24.400372 0 0 1-33.854511 0.595348l-81.25321-81.131162a24.314047 24.314047 0 0 1 0-34.402233zM755.98586 229.209302c13.463814 0 24.379535 10.894884 24.379535 24.340838 0 13.442977-10.915721 24.33786-24.379535 24.33786H268.472558c-13.463814 0-24.376558-10.894884-24.376558-24.33786S255.005767 229.209302 268.469581 229.209302h487.516279z m-227.506604 194.720745c13.460837 0 24.376558 10.894884 24.376558 24.33786s-10.915721 24.340837-24.379535 24.340837H268.472558c-13.463814 0-24.376558-10.894884-24.376558-24.340837 0-13.44 10.912744-24.33786 24.376558-24.33786h260.009675z" p-id="31388" fill="#5F4B8B"></path></svg>