<?xml version="1.0" standalone="no"?><!DOCTYPE svg PUBLIC "-//W3C//DTD SVG 1.1//EN" "http://www.w3.org/Graphics/SVG/1.1/DTD/svg11.dtd"><svg height="1024" node-id="1" sillyvg="true" template-height="1024" template-width="1024" version="1.1" viewBox="0 0 1024 1024" width="1024" xmlns="http://www.w3.org/2000/svg" xmlns:xlink="http://www.w3.org/1999/xlink"><defs node-id="54"><clipPath id="clippath" node-id="5"><path d="M 0.00 0.00 L 1024.00 0.00 L 1024.00 1024.00 L 0.00 1024.00 Z" fill="#000000" fill-rule="nonzero" node-id="57" stroke="none" target-height="1024" target-width="1024" target-x="0" target-y="0"></path></clipPath></defs><g node-id="151"><g clip-path="url(#clippath)" group-id="1" node-id="63"><path d="M 933.36 958.56 L 77.89 958.56" fill="none" group-id="1,2" node-id="65" stroke="#373435" stroke-linecap="round" stroke-width="1.42" target-height="0" target-width="855.47003" target-x="77.89" target-y="958.56"></path><path d="M 511.52 864.95 C 511.96 868.06 512.00 957.20 512.00 957.20 C 512.00 957.20 320.18 957.48 320.21 956.91 C 322.89 904.21 390.00 917.28 416.90 864.70 L 511.52 864.95 Z" fill="#d2d3d5" fill-rule="evenodd" group-id="1,2" node-id="67" stroke="none" target-height="92.77997" target-width="191.82" target-x="320.18" target-y="864.7"></path><path d="M 511.52 864.95 C 511.96 868.06 512.00 957.20 512.00 957.20 C 512.00 957.20 320.18 957.48 320.21 956.91 C 322.89 904.21 390.00 917.28 416.90 864.70 L 511.52 864.95 Z" fill="none" group-id="1,2" node-id="69" stroke="#373435" stroke-linecap="round" stroke-width="1.42" target-height="92.77997" target-width="191.82" target-x="320.18" target-y="864.7"></path><path d="M 582.64 958.79 C 581.52 958.79 480.33 958.79 480.33 958.79 C 478.73 958.66 487.83 924.93 528.02 921.99 C 553.25 906.68 537.78 868.10 537.78 868.10 L 642.27 828.84 L 682.64 926.50 L 582.63 958.80 Z" fill="#d2d3d5" fill-rule="evenodd" group-id="1,2" node-id="71" stroke="none" target-height="129.9599" target-width="203.91003" target-x="478.72998" target-y="828.84"></path><path d="M 582.64 958.79 C 581.52 958.79 480.33 958.79 480.33 958.79 C 478.73 958.66 487.83 924.93 528.02 921.99 C 553.25 906.68 537.78 868.10 537.78 868.10 L 642.27 828.84 L 682.64 926.50 L 582.63 958.80 Z" fill="none" group-id="1,2" node-id="73" stroke="#373435" stroke-linecap="round" stroke-width="1.42" target-height="129.9599" target-width="203.91003" target-x="478.72998" target-y="828.84"></path><path d="M 517.35 863.71 L 522.10 872.47 L 642.28 828.83 C 639.07 820.57 629.33 795.63 618.63 771.37 C 577.14 677.32 587.14 715.50 618.66 612.83 C 620.48 606.92 630.35 573.37 631.80 568.26 L 494.51 500.50 L 399.91 621.93 C 373.53 655.79 379.39 668.38 380.05 714.24 C 380.82 768.16 385.57 857.22 386.52 864.64 L 488.58 864.59 L 511.53 864.59 L 517.36 863.72 Z" fill="#fefefe" fill-rule="evenodd" group-id="1,2" node-id="75" stroke="none" target-height="371.96997" target-width="268.75003" target-x="373.53" target-y="500.5"></path><path d="M 528.03 921.98 C 544.51 919.63 558.06 926.24 559.69 927.59" fill="none" group-id="1,2" node-id="77" stroke="#373435" stroke-linecap="round" stroke-width="1.42" target-height="7.959961" target-width="31.659973" target-x="528.03" target-y="919.63"></path><path d="M 485.81 615.27 C 460.18 664.39 446.95 697.66 459.38 728.61 C 480.02 779.99 516.55 865.32 522.09 872.46 L 642.27 828.82 C 639.06 820.56 629.32 795.62 618.62 771.36 C 577.13 677.31 587.13 715.49 618.65 612.82 C 620.47 606.91 630.34 573.36 631.79 568.25 L 494.50 500.49 L 399.90 621.92 C 373.52 655.78 379.38 668.37 380.04 714.23 C 380.81 768.15 385.56 857.21 386.51 864.63 L 488.57 864.58" fill="none" group-id="1,2" node-id="79" stroke="#373435" stroke-linecap="round" stroke-width="1.42" target-height="371.97003" target-width="268.75003" target-x="373.52" target-y="500.49"></path><path d="M 173.29 496.40 C 188.02 498.74 199.45 511.31 198.82 524.46 C 198.19 537.62 185.74 546.39 171.01 544.05 C 156.28 541.71 144.85 529.14 145.48 515.99 C 146.11 502.83 158.56 494.06 173.29 496.40 Z" fill="#fefefe" fill-rule="evenodd" group-id="1,2" node-id="81" stroke="none" target-height="52.330017" target-width="54.599976" target-x="144.85" target-y="494.06"></path><path d="M 173.29 496.40 C 188.02 498.74 199.45 511.31 198.82 524.46 C 198.19 537.62 185.74 546.39 171.01 544.05 C 156.28 541.71 144.85 529.14 145.48 515.99 C 146.11 502.83 158.56 494.06 173.29 496.40 Z" fill="none" group-id="1,2" node-id="83" stroke="#373435" stroke-linecap="round" stroke-width="1.42" target-height="52.330017" target-width="54.599976" target-x="144.85" target-y="494.06"></path><path d="M 635.41 324.32 C 635.41 324.32 618.63 511.28 614.12 537.57 C 614.05 537.96 451.89 498.31 456.26 497.44 C 456.26 497.44 547.96 354.86 555.65 341.03 C 555.65 341.03 569.17 318.43 586.15 320.01 C 597.06 321.03 631.77 323.15 635.40 324.32 Z" fill="#373435" fill-rule="evenodd" group-id="1,2" node-id="85" stroke="none" target-height="219.53003" target-width="183.51996" target-x="451.89" target-y="318.43"></path><path d="M 635.41 324.32 C 635.41 324.32 618.63 511.28 614.12 537.57 C 614.05 537.96 451.89 498.31 456.26 497.44 C 456.26 497.44 547.96 354.86 555.65 341.03 C 555.65 341.03 569.17 318.43 586.15 320.01 C 597.06 321.03 631.77 323.15 635.40 324.32 Z" fill="none" group-id="1,2" node-id="87" stroke="#373435" stroke-linecap="round" stroke-width="1.42" target-height="219.53003" target-width="183.51996" target-x="451.89" target-y="318.43"></path><path d="M 578.71 320.23 L 630.30 323.94 L 635.10 296.51 L 649.89 219.34 C 655.28 195.64 633.29 174.16 610.07 187.17 C 603.31 190.96 583.82 211.43 576.99 218.05 C 563.12 231.52 548.31 246.69 552.98 259.56 C 555.68 267.02 565.83 276.18 586.68 276.74 L 578.71 320.23 Z" fill="#fefefe" fill-rule="evenodd" group-id="1,2" node-id="89" stroke="none" target-height="149.78001" target-width="106.97003" target-x="548.31" target-y="174.15999"></path><path d="M 578.71 320.23 L 630.30 323.94 L 635.10 296.51 L 649.89 219.34 C 655.28 195.64 633.29 174.16 610.07 187.17 C 603.31 190.96 583.82 211.43 576.99 218.05 C 563.12 231.52 548.31 246.69 552.98 259.56 C 555.68 267.02 565.83 276.18 586.68 276.74 L 578.71 320.23 Z" fill="none" group-id="1,2" node-id="91" stroke="#373435" stroke-linecap="round" stroke-width="1.42" target-height="149.78001" target-width="106.97003" target-x="548.31" target-y="174.15999"></path><path d="M 581.50 246.44 C 585.96 249.44 596.90 257.74 606.25 242.42" fill="none" group-id="1,2" node-id="93" stroke="#373435" stroke-linecap="round" stroke-width="1.42" target-height="15.319992" target-width="24.75" target-x="581.5" target-y="242.42"></path><path d="M 625.20 358.07 L 630.30 323.94 C 640.99 324.16 651.17 327.86 661.52 337.53 C 672.53 347.81 685.38 374.37 694.50 397.80 L 800.55 639.68 L 655.24 671.03 L 625.20 358.08 Z" fill="#373435" fill-rule="evenodd" group-id="1,2" node-id="95" stroke="none" target-height="347.09003" target-width="175.34998" target-x="625.2" target-y="323.94"></path><path d="M 625.20 358.07 L 630.30 323.94 C 640.99 324.16 651.17 327.86 661.52 337.53 C 672.53 347.81 685.38 374.37 694.50 397.80 L 800.55 639.68 L 655.24 671.03 L 625.20 358.08 Z" fill="none" group-id="1,2" node-id="97" stroke="#373435" stroke-linecap="round" stroke-width="1.42" target-height="347.09003" target-width="175.34998" target-x="625.2" target-y="323.94"></path><path d="M 570.01 361.93 L 577.08 321.08 L 413.07 421.47 C 264.58 454.67 426.57 497.04 427.11 496.78 L 570.00 361.93 Z" fill="#373435" fill-rule="evenodd" group-id="1,2" node-id="99" stroke="none" target-height="175.96002" target-width="312.50003" target-x="264.58" target-y="321.08"></path><path d="M 570.01 361.93 L 577.08 321.08 L 413.07 421.47 C 264.58 454.67 426.57 497.04 427.11 496.78 L 570.00 361.93 Z" fill="none" group-id="1,2" node-id="101" stroke="#373435" stroke-linecap="round" stroke-width="1.42" target-height="175.96002" target-width="312.50003" target-x="264.58" target-y="321.08"></path><path d="M 371.95 548.97 C 368.80 543.28 364.13 499.32 369.27 484.69 C 374.73 469.15 367.37 459.58 358.27 457.55 C 358.27 457.55 350.17 479.38 339.60 493.69 C 323.85 515.02 299.65 530.03 292.17 529.31 C 271.78 527.33 216.21 520.24 185.23 517.63 C 159.14 515.43 146.70 552.63 181.08 565.56 C 199.10 572.33 228.41 579.49 248.10 586.25 C 311.24 607.91 338.94 576.36 371.96 548.99 Z" fill="#fefefe" fill-rule="evenodd" group-id="1,2" node-id="103" stroke="none" target-height="150.35999" target-width="228.03001" target-x="146.7" target-y="457.55"></path><path d="M 371.95 548.97 C 368.80 543.28 364.13 499.32 369.27 484.69 C 374.73 469.15 367.37 459.58 358.27 457.55 C 358.27 457.55 350.17 479.38 339.60 493.69 C 323.85 515.02 299.65 530.03 292.17 529.31 C 271.78 527.33 216.21 520.24 185.23 517.63 C 159.14 515.43 146.70 552.63 181.08 565.56 C 199.10 572.33 228.41 579.49 248.10 586.25 C 311.24 607.91 338.94 576.36 371.96 548.99 Z" fill="none" group-id="1,2" node-id="105" stroke="#373435" stroke-linecap="round" stroke-width="1.42" target-height="150.35999" target-width="228.03001" target-x="146.7" target-y="457.55"></path><path d="M 215.11 520.61 C 209.17 519.82 201.50 519.78 194.89 522.62 C 181.32 528.45 179.30 548.32 186.93 558.79 C 192.58 566.55 199.26 571.01 208.55 574.33" fill="none" group-id="1,2" node-id="107" stroke="#373435" stroke-linecap="round" stroke-width="1.42" target-height="54.549988" target-width="35.809998" target-x="179.3" target-y="519.78"></path><path d="M 266.08 526.42 L 314.08 532.62" fill="none" group-id="1,2" node-id="109" stroke="#373435" stroke-linecap="round" stroke-width="1.42" target-height="6.200012" target-width="48" target-x="266.08" target-y="526.42"></path><path d="M 84.42 383.62 C 71.74 385.79 68.48 395.09 78.23 404.52 L 195.89 518.23 L 264.77 520.50 L 265.18 520.89 L 303.14 389.84 L 303.55 390.23 L 242.12 360.62 C 192.74 368.97 133.85 374.65 84.42 383.62 Z" fill="#fefefe" fill-rule="evenodd" group-id="1,2" node-id="111" stroke="none" target-height="160.27002" target-width="235.06998" target-x="68.48" target-y="360.62"></path><path d="M 84.42 383.62 C 71.74 385.79 68.48 395.09 78.23 404.52 L 195.89 518.23 L 264.77 520.50 L 265.18 520.89 L 303.14 389.84 L 303.55 390.23 L 242.12 360.62 C 192.74 368.97 133.85 374.65 84.42 383.62 Z" fill="none" group-id="1,2" node-id="113" stroke="#373435" stroke-linecap="round" stroke-width="1.42" target-height="160.27002" target-width="235.06998" target-x="68.48" target-y="360.62"></path><path d="M 846.87 538.03 L 800.63 695.64 L 195.88 518.24 L 196.12 517.44 C 206.16 516.11 210.67 516.34 225.66 513.62 C 239.73 511.88 242.38 496.92 231.90 489.67 L 210.30 469.09 L 211.70 464.31 C 222.24 462.88 226.61 463.18 241.95 460.39 C 256.02 458.65 258.67 443.69 248.19 436.44 L 226.07 415.35 L 227.30 411.17 C 238.36 409.62 242.57 410.00 258.26 407.16 C 272.33 405.42 274.98 390.46 264.50 383.21 L 241.85 361.62 L 242.13 360.65 L 846.88 538.05 Z" fill="#d2d3d5" fill-rule="evenodd" group-id="1,2" node-id="115" stroke="none" target-height="334.99" target-width="651" target-x="195.88" target-y="360.64996"></path><path d="M 846.87 538.03 L 800.63 695.64 L 195.88 518.24 L 196.12 517.44 C 206.16 516.11 210.67 516.34 225.66 513.62 C 239.73 511.88 242.38 496.92 231.90 489.67 L 210.30 469.09 L 211.70 464.31 C 222.24 462.88 226.61 463.18 241.95 460.39 C 256.02 458.65 258.67 443.69 248.19 436.44 L 226.07 415.35 L 227.30 411.17 C 238.36 409.62 242.57 410.00 258.26 407.16 C 272.33 405.42 274.98 390.46 264.50 383.21 L 241.85 361.62 L 242.13 360.65 L 846.88 538.05 Z" fill="none" group-id="1,2" node-id="117" stroke="#373435" stroke-linecap="round" stroke-width="1.42" target-height="334.99" target-width="651" target-x="195.88" target-y="360.64996"></path><path d="M 832.16 588.15 L 815.33 645.51 C 807.24 673.08 823.18 702.25 850.75 710.34 L 850.75 710.34 C 878.32 718.43 907.49 702.49 915.58 674.92 L 932.41 617.56 C 940.50 589.99 924.56 560.82 896.99 552.73 L 896.99 552.73 C 869.42 544.64 840.25 560.58 832.16 588.15 Z" fill="#373435" fill-rule="evenodd" group-id="1,2" node-id="119" stroke="none" target-height="173.78998" target-width="133.26001" target-x="807.24" target-y="544.64"></path><path d="M 832.16 588.15 L 815.33 645.51 C 807.24 673.08 823.18 702.25 850.75 710.34 L 850.75 710.34 C 878.32 718.43 907.49 702.49 915.58 674.92 L 932.41 617.56 C 940.50 589.99 924.56 560.82 896.99 552.73 L 896.99 552.73 C 869.42 544.64 840.25 560.58 832.16 588.15 Z" fill="none" group-id="1,2" node-id="121" stroke="#373435" stroke-linecap="round" stroke-width="1.42" target-height="173.78998" target-width="133.26001" target-x="807.24" target-y="544.64"></path><path d="M 815.51 705.82 C 813.43 706.87 810.85 706.70 808.45 705.99 L 808.45 705.99 C 802.30 704.18 798.74 697.67 800.54 691.52 L 844.65 541.14 C 846.46 534.99 852.96 531.43 859.12 533.24 L 859.12 533.24 C 861.43 533.92 863.00 535.66 864.81 537.00 C 866.95 538.58 869.88 540.17 873.45 539.29 C 875.50 538.79 877.69 538.69 879.85 539.33 L 879.85 539.33 C 886.00 541.14 889.56 547.65 887.76 553.80 L 843.65 704.18 C 841.85 710.33 835.33 713.89 829.18 712.09 L 829.18 712.09 C 827.14 711.49 825.34 710.41 824.01 708.92 C 821.30 705.91 819.66 703.74 815.50 705.83 Z" fill="#fefefe" fill-rule="evenodd" group-id="1,2" node-id="123" stroke="none" target-height="182.46002" target-width="90.82001" target-x="798.74" target-y="531.43"></path><path d="M 815.51 705.82 C 813.43 706.87 810.85 706.70 808.45 705.99 L 808.45 705.99 C 802.30 704.18 798.74 697.67 800.54 691.52 L 844.65 541.14 C 846.46 534.99 852.96 531.43 859.12 533.24 L 859.12 533.24 C 861.43 533.92 863.00 535.66 864.81 537.00 C 866.95 538.58 869.88 540.17 873.45 539.29 C 875.50 538.79 877.69 538.69 879.85 539.33 L 879.85 539.33 C 886.00 541.14 889.56 547.65 887.76 553.80 L 843.65 704.18 C 841.85 710.33 835.33 713.89 829.18 712.09 L 829.18 712.09 C 827.14 711.49 825.34 710.41 824.01 708.92 C 821.30 705.91 819.66 703.74 815.50 705.83 Z" fill="none" group-id="1,2" node-id="125" stroke="#373435" stroke-linecap="round" stroke-width="1.42" target-height="182.46002" target-width="90.82001" target-x="798.74" target-y="531.43"></path><path d="M 83.98 384.16 L 106.12 381.04 L 94.99 418.98 C 94.86 418.92 78.63 403.10 76.77 401.44 C 71.62 396.87 73.40 390.94 78.67 386.94 C 79.52 386.30 83.25 384.04 83.98 384.15 Z" fill="#373435" fill-rule="evenodd" group-id="1,2" node-id="127" stroke="none" target-height="37.939972" target-width="34.500008" target-x="71.62" target-y="381.04004"></path><path d="M 83.98 384.16 L 106.12 381.04 L 94.99 418.98 C 94.86 418.92 78.63 403.10 76.77 401.44 C 71.62 396.87 73.40 390.94 78.67 386.94 C 79.52 386.30 83.25 384.04 83.98 384.15 Z" fill="none" group-id="1,2" node-id="129" stroke="#373435" stroke-linecap="round" stroke-width="1.42" target-height="37.939972" target-width="34.500008" target-x="71.62" target-y="381.04004"></path><path d="M 820.81 674.22 C 888.81 674.03 883.46 741.14 822.69 737.27 C 765.54 733.63 800.53 715.09 794.94 702.00 C 790.63 691.91 798.80 674.28 820.81 674.22 Z" fill="#fefefe" fill-rule="evenodd" group-id="1,2" node-id="131" stroke="none" target-height="67.109985" target-width="123.27002" target-x="765.5399" target-y="674.03"></path><path d="M 820.81 674.22 C 888.81 674.03 883.46 741.14 822.69 737.27 C 765.54 733.63 800.53 715.09 794.94 702.00 C 790.63 691.91 798.80 674.28 820.81 674.22 Z" fill="none" group-id="1,2" node-id="133" stroke="#373435" stroke-linecap="round" stroke-width="1.42" target-height="67.109985" target-width="123.27002" target-x="765.5399" target-y="674.03"></path><path d="M 648.45 650.74 C 637.37 692.48 676.32 718.61 712.67 725.31 C 722.41 727.11 752.59 733.06 764.58 735.70 C 815.46 746.89 837.79 695.94 822.41 659.50 C 815.29 642.63 787.55 626.22 776.34 652.25 C 776.34 652.25 777.06 649.93 769.94 638.46 C 759.36 621.42 733.36 613.68 725.53 635.85 C 724.88 637.68 717.45 615.96 696.51 614.00 C 666.79 611.22 670.43 657.28 665.99 656.22 C 660.65 654.94 648.48 650.63 648.45 650.74 Z" fill="#fefefe" fill-rule="evenodd" group-id="1,2" node-id="135" stroke="none" target-height="135.67004" target-width="200.41992" target-x="637.37" target-y="611.22"></path><path d="M 648.45 650.74 C 637.37 692.48 676.32 718.61 712.67 725.31 C 722.41 727.11 752.59 733.06 764.58 735.70 C 815.46 746.89 837.79 695.94 822.41 659.50 C 815.29 642.63 787.55 626.22 776.34 652.25 C 776.34 652.25 777.06 649.93 769.94 638.46 C 759.36 621.42 733.36 613.68 725.53 635.85 C 724.88 637.68 717.45 615.96 696.51 614.00 C 666.79 611.22 670.43 657.28 665.99 656.22 C 660.65 654.94 648.48 650.63 648.45 650.74 Z" fill="none" group-id="1,2" node-id="137" stroke="#373435" stroke-linecap="round" stroke-width="1.42" target-height="135.67004" target-width="200.41992" target-x="637.37" target-y="611.22"></path><path d="M 774.26 646.60 C 778.51 654.74 785.73 675.67 768.89 706.17" fill="none" group-id="1,2" node-id="139" stroke="#373435" stroke-linecap="round" stroke-width="1.42" target-height="59.570007" target-width="16.839966" target-x="768.88995" target-y="646.6"></path><path d="M 723.36 632.65 C 735.13 650.75 725.75 678.66 717.74 691.36" fill="none" group-id="1,2" node-id="141" stroke="#373435" stroke-linecap="round" stroke-width="1.42" target-height="58.70996" target-width="17.390076" target-x="717.7399" target-y="632.65"></path><path d="M 667.02 653.91 C 666.69 659.30 664.57 666.89 661.22 671.86" fill="none" group-id="1,2" node-id="143" stroke="#373435" stroke-linecap="round" stroke-width="1.42" target-height="17.950012" target-width="5.800049" target-x="661.22" target-y="653.91"></path><path d="M 535.01 382.60 L 498.56 429.35" fill="none" group-id="1,2" node-id="145" stroke="#fefefe" stroke-linecap="round" stroke-width="1.42" target-height="46.75003" target-width="36.450012" target-x="498.56" target-y="382.59998"></path><path d="M 629.54 467.18 L 629.33 390.61" fill="none" group-id="1,2" node-id="147" stroke="#fefefe" stroke-linecap="round" stroke-width="1.42" target-height="76.57001" target-width="0.20996094" target-x="629.33" target-y="390.61002"></path><path d="M 72.86 391.53 C 76.01 362.22 84.61 339.89 96.28 313.32 C 122.22 254.26 161.47 202.88 208.64 159.17 C 239.30 130.75 304.33 83.72 347.23 113.47 C 380.09 136.26 361.73 197.34 351.92 242.82 C 328.27 352.37 421.63 271.68 452.74 234.95 C 478.44 204.61 505.49 169.33 533.84 141.96 C 594.02 83.85 676.72 80.44 716.55 116.67 C 748.98 146.16 739.56 178.74 728.39 215.61 C 710.86 273.51 701.86 306.43 719.62 323.83 C 734.81 338.72 771.43 346.75 818.61 299.25 C 841.71 276.00 867.49 251.45 891.79 241.58" fill="none" group-id="1,2" node-id="149" stroke="#373435" stroke-linecap="round" stroke-width="1.42" target-height="311.09" target-width="818.93" target-x="72.86" target-y="80.44"></path></g></g></svg>