<?xml version="1.0" standalone="no"?><!DOCTYPE svg PUBLIC "-//W3C//DTD SVG 1.1//EN" "http://www.w3.org/Graphics/SVG/1.1/DTD/svg11.dtd"><svg t="1768294464473" class="icon" viewBox="0 0 1024 1024" version="1.1" xmlns="http://www.w3.org/2000/svg" p-id="24825" xmlns:xlink="http://www.w3.org/1999/xlink" width="200" height="200"><path d="M295.8 286.7c0 10.3 9.8 18.8 21.9 18.8 6.4 0 12.4-2.4 16.5-6.6 3.4-3.4 5.3-7.8 5.2-12.4v-0.6c0-0.4 0.1-0.9 0.1-1.3 0-43.6 17.9-87.3 49.1-119.7 32.3-33.6 75.8-52.3 122.4-52.7h3c46.7 0.4 90.2 19.1 122.5 52.7 31.2 32.5 49.1 76.1 49.1 119.7l0.1 5h0.3c1.6 9 10.6 15.8 21.5 15.9h0.1c10.9 0 19.9-6.9 21.5-15.9h0.3v-5c0-52.2-21.6-104.6-59.3-143.8-40.6-42.3-95.9-65.8-155.8-66.3h-3.6c-59.7 0.5-115 24-155.7 66.3-37.7 39.2-59.3 91.6-59.3 143.8 0 0.4 0 1 0.1 1.6v0.5z m574.8 41.8H154.5c-49.4 0-89.5 40-89.5 89.5v451c0 49.5 40.1 89.5 89.5 89.5h716.1c49.4 0 89.5-40 89.5-89.5V418c0-49.4-40.1-89.5-89.5-89.5z m44.7 540.6c0 24.7-20.1 44.8-44.7 44.8H154.5c-24.7 0-44.8-20.1-44.8-44.8V418c0-24.7 20.1-44.8 44.8-44.8h716.1c24.7 0 44.7 20.1 44.7 44.8v451.1z" p-id="24826" fill="#5F4B8B"></path><path d="M513.1 520c-35.2 0-63.8 28.6-63.8 63.8 0 27.3 17.2 50.7 41.4 59.7v131.4c0 12.3 10.1 22.4 22.4 22.4 12.3 0 22.4-10.1 22.4-22.4V643.5c24.2-9.1 41.4-32.4 41.4-59.7 0-35.2-28.5-63.8-63.8-63.8z" p-id="24827" fill="#5F4B8B"></path></svg>