<?xml version="1.0" standalone="no"?><!DOCTYPE svg PUBLIC "-//W3C//DTD SVG 1.1//EN" "http://www.w3.org/Graphics/SVG/1.1/DTD/svg11.dtd"><svg height="1525" node-id="1" sillyvg="true" template-height="1525" template-width="1305" version="1.1" viewBox="0 0 1305 1525" width="1305" xmlns="http://www.w3.org/2000/svg" xmlns:xlink="http://www.w3.org/1999/xlink"><defs node-id="36"><clipPath id="clip-path" node-id="5"><path d="M 147.46 36.56 L 1452.54 36.56 L 1452.54 1563.45 L 147.46 1563.45 Z" fill="#000000" fill-rule="nonzero" id="SVGID" node-id="6" stroke="none" target-height="1526.89" target-width="1305.08" target-x="147.46" target-y="36.56"></path></clipPath></defs><g node-id="173"><g clip-path="url(#clip-path)" group-id="1" id="sillyvg_g_0" node-id="42"><path d="M 1029.75 0.00 C 1043.87 347.43 1049.39 728.46 1046.32 1143.08 C 1045.84 1199.83 1037.65 1250.40 1021.74 1294.78 L 581.07 1296.20 C 552.10 1279.81 526.91 1257.47 507.18 1230.66 C 503.78 1226.02 498.63 1222.97 492.93 1222.22 C 487.59 1221.50 482.23 1223.38 478.51 1227.28 L 426.51 1282.28 C 375.57 1297.04 322.25 1301.75 269.51 1296.17 C 257.64 1300.93 253.07 1308.76 255.80 1319.67 C 233.41 1297.22 206.45 1279.86 176.75 1268.75 L 171.59 1207.15 C 179.06 1178.97 179.06 1149.33 171.59 1121.15 C 178.22 1065.72 178.15 1006.67 171.40 943.99 C 250.28 939.36 259.19 989.75 276.28 1050.99 C 277.73 1056.40 281.48 1060.91 286.54 1063.31 C 386.79 1107.47 345.30 892.03 194.85 863.55 C 188.19 862.33 182.98 859.11 180.96 855.00 L 172.23 837.00 L 171.54 673.56 C 218.87 673.44 254.36 706.91 278.01 773.98 C 285.97 796.65 301.76 805.85 325.37 801.58 C 338.01 799.27 346.56 757.78 343.00 741.05 C 323.65 650.95 266.50 602.58 171.54 595.93 L 170.82 587.74 C 178.54 531.83 178.78 472.77 171.54 410.58 C 225.66 410.00 257.11 433.03 265.90 479.67 C 273.74 522.04 304.00 570.83 341.75 509.58 C 344.78 504.69 345.97 498.89 345.13 493.20 C 333.87 400.38 282.07 345.78 189.72 329.39 C 179.87 327.74 174.05 318.89 172.26 302.86 L 175.26 142.97 C 233.54 137.81 267.54 190.16 273.04 240.90 C 273.74 247.20 276.14 252.60 279.81 256.04 C 320.81 295.56 350.32 250.70 343.02 211.88 C 326.28 124.28 270.85 73.00 176.72 58.04 C 179.21 19.46 196.78 0.17 229.42 0.18 C 485.81 0.30 752.58 0.24 1029.75 0.00 Z M 919.37 1033.58 L 709.98 1033.23 C 701.77 1033.21 693.87 1036.39 687.98 1042.11 C 682.19 1047.72 678.94 1055.44 678.98 1063.50 L 679.51 1139.88 C 679.64 1154.46 692.26 1166.30 708.00 1166.58 L 896.73 1169.79 L 990.21 1168.19 C 1007.12 1167.89 1020.66 1154.10 1020.66 1137.19 L 1021.37 1054.75 C 1021.51 1045.13 1014.94 1037.23 1006.59 1036.94 Z M 919.37 1033.58" fill="#698d97" fill-rule="nonzero" group-id="1,16" node-id="46" stroke="none" target-height="1319.67" target-width="878.5733" target-x="170.81999" target-y="0"></path><path d="M 1029.75 0.00 L 1109.75 1.07 C 1136.34 1.43 1149.93 14.54 1150.52 40.41 L 1156.05 276.15 L 1156.05 409.66 L 1157.47 540.88 L 1155.33 672.99 L 1151.54 859.27 L 1154.54 1117.44 L 1150.80 1273.95 L 1071.39 1299.95 L 1021.71 1294.79 C 1037.61 1250.41 1045.80 1199.84 1046.29 1143.09 C 1049.36 728.47 1043.83 347.44 1029.72 0.01 Z M 1029.75 0.00" fill="#567983" fill-rule="nonzero" group-id="1,17" node-id="51" stroke="none" target-height="1299.9501" target-width="135.76007" target-x="1021.71" target-y="0"></path><path d="M 176.72 58.04 C 270.86 73.00 326.29 124.28 343.02 211.88 C 350.32 250.70 320.76 295.56 279.81 256.04 C 276.14 252.60 273.74 247.20 273.04 240.90 C 267.54 190.16 233.54 137.81 175.29 142.97 C 54.45 177.28 45.20 239.66 147.54 330.11 L 59.54 367.11 C -39.57 205.81 -0.51 102.79 176.72 58.04 Z M 176.72 58.04" fill="#918191" fill-rule="nonzero" group-id="1,18" node-id="56" stroke="none" target-height="309.07" target-width="389.8867" target-x="-39.566677" target-y="58.040005"></path><path d="M 175.29 142.97 L 172.29 302.86 C 175.38 314.26 167.13 323.34 147.55 330.11 C 45.20 239.65 54.45 177.27 175.29 142.97 Z M 175.29 142.97" fill="#ffffff" fill-rule="nonzero" group-id="1,19" node-id="61" stroke="none" target-height="187.14005" target-width="130.17334" target-x="45.20333" target-y="142.97"></path><path d="M 1192.54 393.85 L 1156.00 409.66 L 1156.00 276.15 C 1182.35 269.87 1196.35 261.03 1198.00 249.62 C 1200.85 230.87 1209.09 228.03 1222.74 241.08 C 1313.90 328.33 1221.32 329.57 1192.47 393.85 Z M 1192.54 393.85" fill="#e1dde1" fill-rule="nonzero" group-id="1,20" node-id="66" stroke="none" target-height="181.63333" target-width="157.90015" target-x="1156" target-y="228.02667"></path><path d="M 172.26 302.86 C 174.04 318.86 179.86 327.70 189.72 329.39 C 282.07 345.77 333.88 400.37 345.15 493.20 C 345.99 498.89 344.80 504.69 341.77 509.58 C 304.02 570.83 273.77 522.04 265.92 479.67 C 257.14 433.00 225.68 409.97 171.54 410.58 C 44.41 419.13 52.59 584.58 170.82 587.74 L 171.54 595.93 C 131.69 599.34 93.49 613.42 60.97 636.71 C -11.32 544.96 -11.79 455.10 59.54 367.14 L 147.54 330.14 C 167.13 323.37 175.37 314.29 172.28 302.89 Z M 172.26 302.86" fill="#b6adb6" fill-rule="nonzero" group-id="1,21" node-id="71" stroke="none" target-height="333.84995" target-width="357.7868" target-x="-11.793341" target-y="302.86002"></path></g></g><g node-id="174"><path d="M 1192.54 393.85 L 1253.26 453.49 L 1157.47 540.92 L 1156.00 409.66 Z M 1192.54 393.85" fill="#fddd44" fill-rule="nonzero" group-id="2" node-id="77" stroke="none" target-height="147.06995" target-width="97.26001" target-x="1156" target-y="393.85004"></path></g><g node-id="175"><g clip-path="url(#clip-path)" group-id="3" id="sillyvg_g_1" node-id="80"><path d="M 171.54 410.58 C 178.79 472.77 178.55 531.83 170.82 587.74 C 52.59 584.54 44.41 419.13 171.54 410.58 Z M 171.54 410.58" fill="#ffffff" fill-rule="nonzero" group-id="3,22" node-id="84" stroke="none" target-height="177.15997" target-width="134.38335" target-x="44.40999" target-y="410.58002"></path><path d="M 1253.21 453.49 C 1278.13 469.16 1295.10 490.35 1304.13 517.06 C 1305.77 522.32 1304.70 528.05 1301.28 532.37 C 1259.06 585.52 1209.96 632.82 1155.28 673.03 L 1157.42 540.92 Z M 1253.21 453.49" fill="#f8c52d" fill-rule="nonzero" group-id="3,23" node-id="89" stroke="none" target-height="219.53998" target-width="150.48865" target-x="1155.28" target-y="453.49"></path></g></g><g node-id="176"><path d="M 171.54 595.93 C 266.49 602.60 323.65 650.97 343.00 741.05 C 346.56 757.78 338.00 799.27 325.37 801.58 C 301.75 805.85 285.96 796.65 278.01 773.98 C 254.36 706.91 218.87 673.43 171.54 673.56 C 83.10 692.23 59.60 743.74 101.03 828.11 C 121.81 868.83 108.51 889.50 61.14 890.11 C 40.38 872.23 24.52 849.37 15.05 823.66 L 15.76 704.18 L 60.99 636.71 C 93.50 613.43 131.69 599.34 171.54 595.93 Z M 171.54 595.93" fill="#918191" fill-rule="nonzero" group-id="4" node-id="95" stroke="none" target-height="294.18" target-width="331.51" target-x="15.049988" target-y="595.93"></path></g><g node-id="177"><g clip-path="url(#clip-path)" group-id="5" id="sillyvg_g_2" node-id="98"><path d="M 171.54 673.56 L 172.24 837.01 C 171.18 879.21 115.80 834.88 101.03 828.11 C 59.62 743.72 83.12 692.20 171.54 673.56 Z M 171.54 673.56" fill="#ffffff" fill-rule="nonzero" group-id="5,24" node-id="102" stroke="none" target-height="205.64996" target-width="112.62335" target-x="59.61665" target-y="673.56"></path><path d="M 15.76 704.18 L 15.05 823.66 C -5.25 783.77 -5.01 743.94 15.76 704.18 Z M 15.76 704.18" fill="#d5cfd4" fill-rule="nonzero" group-id="5,25" node-id="107" stroke="none" target-height="119.47998" target-width="21.010004" target-x="-5.25001" target-y="704.18"></path><path d="M 101.05 828.11 C 115.82 834.88 171.20 879.21 172.26 837.01 L 180.99 855.01 C 182.99 859.12 188.22 862.34 194.88 863.56 C 345.33 892.04 386.82 1107.48 286.57 1063.32 C 281.49 1060.94 277.72 1056.45 276.25 1051.04 C 259.16 989.79 250.25 939.40 171.37 944.04 C 38.91 958.11 60.81 1126.19 171.56 1121.20 C 179.03 1149.38 179.03 1179.02 171.56 1207.20 C -4.36 1156.63 -41.16 1050.92 61.16 890.09 C 108.49 889.51 121.79 868.84 101.05 828.09 Z M 101.05 828.11" fill="#b6adb6" fill-rule="nonzero" group-id="5,26" node-id="112" stroke="none" target-height="379.1101" target-width="427.98" target-x="-41.16001" target-y="828.08997"></path></g></g><g node-id="178"><path d="M 1151.54 859.27 L 1261.39 972.87 C 1269.65 981.44 1269.39 995.35 1260.86 1004.56 L 1154.54 1117.44 Z M 1151.54 859.27" fill="#fb8628" fill-rule="nonzero" group-id="6" node-id="118" stroke="none" target-height="258.1701" target-width="118.109985" target-x="1151.54" target-y="859.26996"></path></g><g node-id="179"><path d="M 171.37 944.02 C 178.14 1006.69 178.21 1065.74 171.56 1121.18 C 60.81 1126.18 38.91 958.09 171.37 944.02 Z M 171.37 944.02" fill="#ffffff" fill-rule="nonzero" group-id="7" node-id="123" stroke="none" target-height="182.1601" target-width="139.29668" target-x="38.909973" target-y="944.01996"></path></g><g node-id="180"><path d="M 581.07 1296.20 C 580.00 1325.94 621.31 1322.02 612.94 1362.26 L 532.11 1366.00 C 506.82 1321.85 471.62 1293.96 426.52 1282.31 L 478.52 1227.31 C 482.24 1223.42 487.60 1221.54 492.94 1222.25 C 498.64 1223.00 503.79 1226.05 507.19 1230.69 C 526.93 1257.49 552.11 1279.82 581.08 1296.21 Z M 581.07 1296.20" fill="#e1dde1" fill-rule="nonzero" group-id="8" node-id="128" stroke="none" target-height="144.46191" target-width="194.79004" target-x="426.51996" target-y="1221.5381"></path></g><g node-id="181"><g clip-path="url(#clip-path)" group-id="9" id="sillyvg_g_3" node-id="131"><path d="M 176.72 1268.78 C 206.41 1279.87 233.37 1297.23 255.77 1319.66 C 247.10 1360.99 249.00 1395.42 261.47 1422.94 C 266.81 1434.66 278.50 1442.18 291.38 1442.16 L 950.54 1441.66 L 1047.75 1442.38 C 1032.31 1467.18 1029.58 1492.64 1039.56 1518.76 L 230.32 1521.07 C 194.13 1521.20 176.09 1503.15 176.20 1466.94 Z M 176.72 1268.78" fill="#567983" fill-rule="nonzero" group-id="9,27" node-id="135" stroke="none" target-height="252.41663" target-width="871.6567" target-x="176.09334" target-y="1268.78"></path><path d="M 1150.83 1273.95 C 1150.83 1351.40 1193.92 1564.88 1039.55 1518.77 C 1029.55 1492.65 1032.28 1467.19 1047.74 1442.39 C 1071.96 1424.46 1079.38 1399.24 1069.99 1366.71 L 1071.42 1299.94 Z M 1150.83 1273.95" fill="#47656a" fill-rule="nonzero" group-id="9,28" node-id="140" stroke="none" target-height="290.92993" target-width="164.37" target-x="1029.55" target-y="1273.9501"></path></g></g><g node-id="182"><path d="M 426.54 1282.31 C 471.65 1293.95 506.84 1321.85 532.13 1366.00 C 448.92 1369.92 365.52 1367.48 282.68 1358.70 C 277.12 1358.25 272.20 1354.95 269.68 1349.97 C 261.61 1332.76 261.55 1314.83 269.50 1296.20 C 322.24 1301.78 375.56 1297.07 426.50 1282.31 Z M 426.54 1282.31" fill="#f1eff2" fill-rule="nonzero" group-id="10" node-id="146" stroke="none" target-height="87.609985" target-width="270.58334" target-x="261.54666" target-y="1282.31"></path></g><g node-id="183"><path d="M 269.48 1296.20 C 261.53 1314.87 261.59 1332.79 269.66 1349.97 C 272.18 1354.95 277.10 1358.25 282.66 1358.70 C 365.50 1367.48 448.90 1369.92 532.11 1366.00 L 612.94 1362.26 L 972.42 1364.26 C 981.92 1400.71 974.62 1426.53 950.53 1441.71 L 291.38 1442.24 C 278.50 1442.25 266.81 1434.74 261.47 1423.02 C 249.00 1395.45 247.10 1360.99 255.77 1319.66 C 253.05 1308.75 257.62 1300.92 269.48 1296.16 Z M 269.48 1296.20" fill="#cbc5cb" fill-rule="nonzero" group-id="11" node-id="151" stroke="none" target-height="146.09338" target-width="734.81665" target-x="247.10333" target-y="1296.16"></path></g><g node-id="184"><path d="M 581.07 1296.20 L 1021.74 1294.78 L 1071.42 1299.94 L 1069.99 1366.71 L 972.42 1364.22 L 612.94 1362.22 C 621.31 1321.98 580.00 1325.90 581.07 1296.16 Z M 581.07 1296.20" fill="#f1eff2" fill-rule="nonzero" group-id="12" node-id="156" stroke="none" target-height="71.93005" target-width="491.42004" target-x="580" target-y="1294.78"></path></g><g node-id="185"><path d="M 1069.99 1366.71 C 1079.38 1399.24 1071.96 1424.46 1047.74 1442.39 L 950.54 1441.66 C 974.63 1426.48 981.92 1400.66 972.43 1364.21 Z M 1069.99 1366.71" fill="#b6adb6" fill-rule="nonzero" group-id="13" node-id="161" stroke="none" target-height="78.18005" target-width="128.83673" target-x="950.54" target-y="1364.2101"></path></g><g node-id="186"><path d="M 896.75 1169.79 C 926.79 1130.39 934.33 1084.99 919.37 1033.58 L 1006.61 1036.96 C 1014.96 1037.25 1021.53 1045.15 1021.39 1054.77 L 1020.68 1137.21 C 1020.68 1154.12 1007.14 1167.91 990.23 1168.21 Z M 896.75 1169.79" fill="#cbe5e6" fill-rule="nonzero" group-id="14" node-id="166" stroke="none" target-height="136.20996" target-width="124.78003" target-x="896.74994" target-y="1033.5801"></path></g><path d="M 919.37 1033.58 C 934.32 1084.98 926.78 1130.38 896.75 1169.79 L 708.02 1166.58 C 692.28 1166.30 679.66 1154.46 679.53 1139.88 L 679.00 1063.50 C 678.96 1055.44 682.21 1047.72 688.00 1042.11 C 693.89 1036.38 701.79 1033.19 710.00 1033.23 Z M 919.37 1033.58" fill="#f1eff2" fill-rule="nonzero" group-id="15" node-id="171" stroke="none" target-height="136.59729" target-width="255.3587" target-x="678.9646" target-y="1033.1927"></path></svg>