<?xml version="1.0" standalone="no"?><!DOCTYPE svg PUBLIC "-//W3C//DTD SVG 1.1//EN" "http://www.w3.org/Graphics/SVG/1.1/DTD/svg11.dtd"><svg height="1024" node-id="1" sillyvg="true" template-height="1024" template-width="1024" version="1.1" viewBox="0 0 1024 1024" width="1024" xmlns="http://www.w3.org/2000/svg" xmlns:xlink="http://www.w3.org/1999/xlink"><defs node-id="57"><clipPath id="clippath" node-id="5"><path d="M 0.00 0.00 L 1024.00 0.00 L 1024.00 1024.00 L 0.00 1024.00 Z" fill="#000000" fill-rule="nonzero" node-id="60" stroke="none" target-height="1024" target-width="1024" target-x="0" target-y="0"></path></clipPath></defs><g node-id="160"><g clip-path="url(#clippath)" group-id="1" node-id="66"><path d="M 405.37 698.52 L 652.45 698.52 C 676.41 698.52 696.01 718.12 696.01 742.08 C 696.01 766.04 676.41 785.64 652.45 785.64 L 405.37 785.64 C 381.41 785.64 361.81 766.04 361.81 742.08 C 361.81 718.12 381.41 698.52 405.37 698.52 Z" fill="#373435" fill-rule="evenodd" group-id="1,2" node-id="68" stroke="none" target-height="87.119995" target-width="334.2" target-x="361.81" target-y="698.52"></path><path d="M 405.37 698.52 L 652.45 698.52 C 676.41 698.52 696.01 718.12 696.01 742.08 C 696.01 766.04 676.41 785.64 652.45 785.64 L 405.37 785.64 C 381.41 785.64 361.81 766.04 361.81 742.08 C 361.81 718.12 381.41 698.52 405.37 698.52 Z" fill="none" group-id="1,2" node-id="70" stroke="#373435" stroke-linecap="round" stroke-width="1.42" target-height="87.119995" target-width="334.2" target-x="361.81" target-y="698.52"></path><path d="M 649.08 573.70 L 562.95 573.79 C 548.54 573.95 480.67 573.87 449.35 573.37 C 400.45 572.59 396.80 586.41 375.29 614.75 C 357.66 637.98 315.23 701.27 312.88 705.50 L 383.61 771.26 C 387.98 767.18 449.86 698.51 459.82 695.16 L 499.30 838.06 L 601.32 834.94 L 580.54 701.14 C 590.17 701.46 633.42 701.40 645.15 701.04 C 731.82 690.21 649.37 574.80 649.09 573.70 Z" fill="#fefefe" fill-rule="evenodd" group-id="1,2" node-id="72" stroke="none" target-height="265.47003" target-width="418.94" target-x="312.88" target-y="572.59"></path><path d="M 649.08 573.70 L 562.95 573.79 C 548.54 573.95 480.67 573.87 449.35 573.37 C 400.45 572.59 396.80 586.41 375.29 614.75 C 357.66 637.98 315.23 701.27 312.88 705.50 L 383.61 771.26 C 387.98 767.18 449.86 698.51 459.82 695.16 L 499.30 838.06 L 601.32 834.94 L 580.54 701.14 C 590.17 701.46 633.42 701.40 645.15 701.04 C 731.82 690.21 649.37 574.80 649.09 573.70 Z" fill="none" group-id="1,2" node-id="74" stroke="#373435" stroke-linecap="round" stroke-width="1.42" target-height="265.47003" target-width="418.94" target-x="312.88" target-y="572.59"></path><path d="M 459.82 695.17 L 447.38 652.97 C 439.84 621.65 464.74 580.84 517.02 573.82" fill="none" group-id="1,2" node-id="76" stroke="#373435" stroke-linecap="round" stroke-width="1.42" target-height="121.349976" target-width="77.18002" target-x="439.84" target-y="573.82"></path><path d="M 244.45 765.63 C 244.29 764.45 244.39 665.53 244.39 665.53 C 244.30 663.84 280.97 663.80 286.27 703.49 C 306.92 702.88 314.13 705.91 314.13 705.91 L 382.73 770.67 L 320.26 839.92 L 244.46 765.63 Z" fill="#d2d3d5" fill-rule="evenodd" group-id="1,2" node-id="78" stroke="none" target-height="176.11993" target-width="138.43999" target-x="244.29" target-y="663.8"></path><path d="M 244.45 765.63 C 244.29 764.45 244.39 665.53 244.39 665.53 C 244.30 663.84 280.97 663.80 286.27 703.49 C 306.92 702.88 314.13 705.91 314.13 705.91 L 382.73 770.67 L 320.26 839.92 L 244.46 765.63 Z" fill="none" group-id="1,2" node-id="80" stroke="#373435" stroke-linecap="round" stroke-width="1.42" target-height="176.11993" target-width="138.43999" target-x="244.29" target-y="663.8"></path><path d="M 600.74 834.94 C 602.53 837.97 624.47 920.80 624.47 920.80 C 624.47 920.80 449.97 921.58 449.93 921.09 C 445.81 876.28 508.24 885.72 499.21 838.05 L 600.73 834.93 Z" fill="#d2d3d5" fill-rule="evenodd" group-id="1,2" node-id="82" stroke="none" target-height="86.64996" target-width="178.65997" target-x="445.81" target-y="834.93005"></path><path d="M 600.74 834.94 C 602.53 837.97 624.47 920.80 624.47 920.80 C 624.47 920.80 449.97 921.58 449.93 921.09 C 445.81 876.28 508.24 885.72 499.21 838.05 L 600.73 834.93 Z" fill="none" group-id="1,2" node-id="84" stroke="#373435" stroke-linecap="round" stroke-width="1.42" target-height="86.64996" target-width="178.65997" target-x="445.81" target-y="834.93005"></path><path d="M 378.61 766.47 L 312.88 705.51" fill="none" group-id="1,2" node-id="86" stroke="#373435" stroke-linecap="round" stroke-width="1.42" target-height="60.95996" target-width="65.72998" target-x="312.88" target-y="705.51"></path><path d="M 286.26 703.49 C 287.77 706.28 285.09 725.34 283.90 727.24" fill="none" group-id="1,2" node-id="88" stroke="#373435" stroke-linecap="round" stroke-width="1.42" target-height="23.75" target-width="3.869995" target-x="283.9" target-y="703.49"></path><path d="M 84.27 921.33 L 939.73 921.33" fill="none" group-id="1,2" node-id="90" stroke="#373435" stroke-linecap="round" stroke-width="1.42" target-height="0" target-width="855.45996" target-x="84.27" target-y="921.33"></path><path d="M 150.12 537.75 L 883.94 537.75 C 883.94 577.43 851.48 609.89 811.80 609.89 L 222.26 609.89 C 182.58 609.89 150.12 577.43 150.12 537.75 Z" fill="#d2d3d5" fill-rule="evenodd" group-id="1,2" node-id="92" stroke="none" target-height="72.140015" target-width="733.82" target-x="150.12" target-y="537.75"></path><path d="M 150.12 537.75 L 883.94 537.75 C 883.94 577.43 851.48 609.89 811.80 609.89 L 222.26 609.89 C 182.58 609.89 150.12 577.43 150.12 537.75 Z" fill="none" group-id="1,2" node-id="94" stroke="#373435" stroke-linecap="round" stroke-width="1.42" target-height="72.140015" target-width="733.82" target-x="150.12" target-y="537.75"></path><path d="M 218.52 537.75 L 830.45 537.75 L 830.45 198.08 C 830.45 185.15 819.87 174.58 806.95 174.58 L 242.03 174.58 C 229.10 174.58 218.53 185.16 218.53 198.08 L 218.53 537.75 Z" fill="#d2d3d5" fill-rule="evenodd" group-id="1,2" node-id="96" stroke="none" target-height="363.16998" target-width="611.93" target-x="218.52" target-y="174.58"></path><path d="M 218.52 537.75 L 830.45 537.75 L 830.45 198.08 C 830.45 185.15 819.87 174.58 806.95 174.58 L 242.03 174.58 C 229.10 174.58 218.53 185.16 218.53 198.08 L 218.53 537.75 Z" fill="none" group-id="1,2" node-id="98" stroke="#373435" stroke-linecap="round" stroke-width="1.42" target-height="363.16998" target-width="611.93" target-x="218.52" target-y="174.58"></path><path d="M 245.89 200.68 L 799.36 200.68 L 799.36 537.74 L 245.89 537.74 Z" fill="#fefefe" fill-rule="nonzero" group-id="1,2" node-id="100" stroke="none" target-height="337.06" target-width="553.47" target-x="245.89001" target-y="200.68"></path><path d="M 245.89 200.68 L 799.36 200.68 L 799.36 537.74 L 245.89 537.74 Z" fill="none" group-id="1,2" node-id="102" stroke="#373435" stroke-linecap="round" stroke-width="1.42" target-height="337.06" target-width="553.47" target-x="245.89001" target-y="200.68"></path><path d="M 535.13 295.32 C 535.13 295.32 625.37 512.90 635.07 537.75 C 635.21 538.12 476.67 536.26 474.79 537.75 C 474.79 537.75 481.77 443.57 483.69 400.64 C 485.35 363.55 483.54 323.96 493.66 317.56 C 495.67 316.29 535.13 295.31 535.13 295.31 Z" fill="#373435" fill-rule="evenodd" group-id="1,2" node-id="104" stroke="none" target-height="242.81" target-width="160.42001" target-x="474.79" target-y="295.31"></path><path d="M 535.13 295.32 C 535.13 295.32 625.37 512.90 635.07 537.75 C 635.21 538.12 476.67 536.26 474.79 537.75 C 474.79 537.75 481.77 443.57 483.69 400.64 C 485.35 363.55 483.54 323.96 493.66 317.56 C 495.67 316.29 535.13 295.31 535.13 295.31 Z" fill="none" group-id="1,2" node-id="106" stroke="#373435" stroke-linecap="round" stroke-width="1.42" target-height="242.81" target-width="160.42001" target-x="474.79" target-y="295.31"></path><path d="M 490.04 319.51 L 535.13 295.32 L 525.09 269.35 L 497.93 195.61 C 490.31 172.53 460.39 165.48 447.22 188.61 C 443.39 195.34 437.25 222.93 434.83 232.13 C 429.90 250.82 425.05 271.46 435.69 280.08 C 441.85 285.07 455.28 287.69 473.42 277.40 L 490.05 319.50 Z" fill="#fefefe" fill-rule="evenodd" group-id="1,2" node-id="108" stroke="none" target-height="154.03001" target-width="110.08002" target-x="425.05" target-y="165.48"></path><path d="M 490.04 319.51 L 535.13 295.32 L 525.09 269.35 L 497.93 195.61 C 490.31 172.53 460.39 165.48 447.22 188.61 C 443.39 195.34 437.25 222.93 434.83 232.13 C 429.90 250.82 425.05 271.46 435.69 280.08 C 441.85 285.07 455.28 287.69 473.42 277.40 L 490.05 319.50 Z" fill="none" group-id="1,2" node-id="110" stroke="#373435" stroke-linecap="round" stroke-width="1.42" target-height="154.03001" target-width="110.08002" target-x="425.05" target-y="165.48"></path><path d="M 451.90 249.72 C 457.87 250.67 472.99 253.77 475.03 237.97" fill="none" group-id="1,2" node-id="112" stroke="#373435" stroke-linecap="round" stroke-width="1.42" target-height="15.799988" target-width="23.130005" target-x="451.9" target-y="237.97"></path><path d="M 526.14 336.46 L 513.25 315.59 L 421.23 330.04 C 405.81 334.06 379.05 337.22 365.77 327.11 C 358.33 321.45 327.96 290.59 327.96 290.59 L 210.63 351.02 C 222.15 365.25 258.87 399.62 285.52 415.89 C 310.27 431.00 353.33 429.77 396.27 404.31 L 526.14 336.46 Z" fill="#373435" fill-rule="evenodd" group-id="1,2" node-id="114" stroke="none" target-height="140.41" target-width="315.51" target-x="210.63" target-y="290.59"></path><path d="M 526.14 336.46 L 513.25 315.59 L 421.23 330.04 C 405.81 334.06 379.05 337.22 365.77 327.11 C 358.33 321.45 327.96 290.59 327.96 290.59 L 210.63 351.02 C 222.15 365.25 258.87 399.62 285.52 415.89 C 310.27 431.00 353.33 429.77 396.27 404.31 L 526.14 336.46 Z" fill="none" group-id="1,2" node-id="116" stroke="#373435" stroke-linecap="round" stroke-width="1.42" target-height="140.41" target-width="315.51" target-x="210.63" target-y="290.59"></path><path d="M 210.38 350.22 L 328.82 291.92 C 325.95 279.20 324.28 274.43 329.82 252.47 C 332.41 242.20 337.12 225.52 337.33 214.73 C 337.59 201.19 327.49 189.18 313.83 195.53 C 303.30 200.43 285.64 229.80 285.64 229.80 C 284.17 225.98 273.66 199.90 264.77 182.70 C 252.54 159.05 225.46 164.84 227.91 193.36 C 228.91 204.91 233.95 224.88 235.34 228.71 C 237.97 235.94 217.65 200.29 214.64 194.97 C 205.98 179.71 191.66 178.01 183.05 184.93 C 174.71 191.63 171.77 206.37 180.90 227.55 C 184.05 234.86 189.31 251.90 195.05 260.43 C 196.83 263.07 185.90 245.98 175.90 238.51 C 166.92 231.81 156.81 233.54 151.65 238.13 C 143.22 245.65 144.06 262.80 155.41 277.92 C 159.60 283.51 209.05 351.00 210.39 350.21 Z" fill="#fefefe" fill-rule="evenodd" group-id="1,2" node-id="118" stroke="none" target-height="191.95" target-width="194.37" target-x="143.22" target-y="159.05"></path><path d="M 210.38 350.22 L 328.82 291.92 C 325.95 279.20 324.28 274.43 329.82 252.47 C 332.41 242.20 337.12 225.52 337.33 214.73 C 337.59 201.19 327.49 189.18 313.83 195.53 C 303.30 200.43 285.64 229.80 285.64 229.80 C 284.17 225.98 273.66 199.90 264.77 182.70 C 252.54 159.05 225.46 164.84 227.91 193.36 C 228.91 204.91 233.95 224.88 235.34 228.71 C 237.97 235.94 217.65 200.29 214.64 194.97 C 205.98 179.71 191.66 178.01 183.05 184.93 C 174.71 191.63 171.77 206.37 180.90 227.55 C 184.05 234.86 189.31 251.90 195.05 260.43 C 196.83 263.07 185.90 245.98 175.90 238.51 C 166.92 231.81 156.81 233.54 151.65 238.13 C 143.22 245.65 144.06 262.80 155.41 277.92 C 159.60 283.51 209.05 351.00 210.39 350.21 Z" fill="none" group-id="1,2" node-id="120" stroke="#373435" stroke-linecap="round" stroke-width="1.42" target-height="191.95" target-width="194.37" target-x="143.22" target-y="159.05"></path><path d="M 285.22 230.05 C 266.16 237.07 245.57 259.22 250.96 291.48" fill="none" group-id="1,2" node-id="122" stroke="#373435" stroke-linecap="round" stroke-width="1.42" target-height="61.430008" target-width="39.649994" target-x="245.57" target-y="230.05"></path><path d="M 243.70 609.89 L 243.70 921.33" fill="none" group-id="1,2" node-id="124" stroke="#373435" stroke-linecap="round" stroke-width="1.42" target-height="311.44" target-width="0" target-x="243.7" target-y="609.89"></path><path d="M 796.27 609.89 L 796.27 921.33" fill="none" group-id="1,2" node-id="126" stroke="#373435" stroke-linecap="round" stroke-width="1.42" target-height="311.44" target-width="0" target-x="796.27" target-y="609.89"></path><path d="M 636.95 785.64 L 692.30 921.33" fill="none" group-id="1,2" node-id="128" stroke="#373435" stroke-linecap="round" stroke-width="1.42" target-height="135.69" target-width="55.350037" target-x="636.95" target-y="785.64"></path><path d="M 411.06 785.64 L 355.71 921.33" fill="none" group-id="1,2" node-id="130" stroke="#373435" stroke-linecap="round" stroke-width="1.42" target-height="135.69" target-width="55.349976" target-x="355.71" target-y="785.64"></path><path d="M 541.64 311.02 L 522.06 317.27 L 533.06 378.65 C 537.47 391.98 539.80 412.29 524.57 413.71 C 516.04 414.50 471.25 413.91 471.25 413.91 L 528.41 535.58 C 549.28 538.40 635.08 537.76 650.19 537.76 C 673.96 537.76 684.21 517.38 651.90 469.68 L 541.65 311.03 Z" fill="#373435" fill-rule="evenodd" group-id="1,2" node-id="132" stroke="none" target-height="227.38004" target-width="212.96002" target-x="471.25" target-y="311.02"></path><path d="M 541.64 311.02 L 522.06 317.27 L 533.06 378.65 C 537.47 391.98 539.80 412.29 524.57 413.71 C 516.04 414.50 471.25 413.91 471.25 413.91 L 528.41 535.58 C 549.28 538.40 635.08 537.76 650.19 537.76 C 673.96 537.76 684.21 517.38 651.90 469.68 L 541.65 311.03 Z" fill="none" group-id="1,2" node-id="134" stroke="#373435" stroke-linecap="round" stroke-width="1.42" target-height="227.38004" target-width="212.96002" target-x="471.25" target-y="311.02"></path><path d="M 477.75 407.85 L 507.91 407.85 C 514.28 407.85 533.81 409.49 534.62 400.08 C 534.79 398.14 535.55 394.54 534.65 392.62 L 531.85 339.45" fill="none" group-id="1,2" node-id="136" stroke="#fefefe" stroke-linecap="round" stroke-width="1.42" target-height="70.03998" target-width="57.799988" target-x="477.75" target-y="339.45"></path><path d="M 451.54 413.78 C 429.48 415.30 379.80 412.85 360.43 420.71 C 344.29 427.26 339.55 446.25 365.45 454.43 C 415.70 470.31 460.15 413.18 451.54 413.77 Z" fill="#fefefe" fill-rule="evenodd" group-id="1,2" node-id="138" stroke="none" target-height="57.45999" target-width="120.600006" target-x="339.55" target-y="412.85"></path><path d="M 451.54 413.78 C 429.48 415.30 379.80 412.85 360.43 420.71 C 344.29 427.26 339.55 446.25 365.45 454.43 C 415.70 470.31 460.15 413.18 451.54 413.77 Z" fill="none" group-id="1,2" node-id="140" stroke="#373435" stroke-linecap="round" stroke-width="1.42" target-height="57.45999" target-width="120.600006" target-x="339.55" target-y="412.85"></path><path d="M 474.41 413.94 C 449.04 413.62 422.52 414.57 400.22 427.81 C 380.51 439.51 357.60 454.86 349.95 477.20 C 340.25 505.53 366.81 524.58 388.44 506.90 C 405.56 492.90 401.58 495.99 400.62 497.59 C 399.20 499.95 387.37 517.98 401.60 529.26 C 416.85 541.36 442.65 515.12 447.49 511.99 C 442.88 518.42 440.28 552.72 492.48 526.39 C 502.09 521.55 509.67 537.74 522.47 536.87 L 474.42 413.93 Z" fill="#fefefe" fill-rule="evenodd" group-id="1,2" node-id="142" stroke="none" target-height="139.1" target-width="182.21997" target-x="340.25" target-y="413.61996"></path><path d="M 474.41 413.94 C 449.04 413.62 422.52 414.57 400.22 427.81 C 380.51 439.51 357.60 454.86 349.95 477.20 C 340.25 505.53 366.81 524.58 388.44 506.90 C 405.56 492.90 401.58 495.99 400.62 497.59 C 399.20 499.95 387.37 517.98 401.60 529.26 C 416.85 541.36 442.65 515.12 447.49 511.99 C 442.88 518.42 440.28 552.72 492.48 526.39 C 502.09 521.55 509.67 537.74 522.47 536.87 L 474.42 413.93 Z" fill="none" group-id="1,2" node-id="144" stroke="#373435" stroke-linecap="round" stroke-width="1.42" target-height="139.1" target-width="182.21997" target-x="340.25" target-y="413.61996"></path><path d="M 676.52 97.46 L 843.72 97.46 C 899.41 97.46 944.97 143.02 944.97 198.71 C 944.97 254.40 899.41 299.96 843.72 299.96 L 701.04 299.96 C 686.38 318.50 668.63 329.47 643.40 329.47 C 628.74 329.47 630.85 320.93 636.73 317.80 C 650.82 310.31 647.25 302.13 643.35 294.34 C 603.82 280.53 575.27 242.80 575.27 198.71 C 575.27 143.02 620.83 97.46 676.52 97.46 Z" fill="#d2d3d5" fill-rule="evenodd" group-id="1,2" node-id="146" stroke="none" target-height="232.01001" target-width="369.69995" target-x="575.27" target-y="97.46"></path><path d="M 676.52 97.46 L 843.72 97.46 C 899.41 97.46 944.97 143.02 944.97 198.71 C 944.97 254.40 899.41 299.96 843.72 299.96 L 701.04 299.96 C 686.38 318.50 668.63 329.47 643.40 329.47 C 628.74 329.47 630.85 320.93 636.73 317.80 C 650.82 310.31 647.25 302.13 643.35 294.34 C 603.82 280.53 575.27 242.80 575.27 198.71 C 575.27 143.02 620.83 97.46 676.52 97.46 Z" fill="none" group-id="1,2" node-id="148" stroke="#373435" stroke-linecap="round" stroke-width="1.42" target-height="232.01001" target-width="369.69995" target-x="575.27" target-y="97.46"></path><path d="M 668.71 168.73 C 685.37 168.73 698.87 182.23 698.87 198.89 C 698.87 215.55 685.37 229.05 668.71 229.05 C 652.05 229.05 638.55 215.55 638.55 198.89 C 638.55 182.23 652.05 168.73 668.71 168.73" fill="#fefefe" fill-rule="evenodd" group-id="1,2" node-id="150" stroke="none" target-height="60.320007" target-width="60.320007" target-x="638.55" target-y="168.73"></path><path d="M 760.43 168.73 C 743.77 168.73 730.27 182.23 730.27 198.89 C 730.27 215.55 743.77 229.05 760.43 229.05 C 777.09 229.05 790.59 215.55 790.59 198.89 C 790.59 182.23 777.09 168.73 760.43 168.73" fill="#fefefe" fill-rule="evenodd" group-id="1,2" node-id="152" stroke="none" target-height="60.320007" target-width="60.320007" target-x="730.27" target-y="168.73"></path><path d="M 852.15 168.73 C 835.49 168.73 821.99 182.23 821.99 198.89 C 821.99 215.55 835.49 229.05 852.15 229.05 C 868.81 229.05 882.31 215.55 882.31 198.89 C 882.31 182.23 868.81 168.73 852.15 168.73" fill="#fefefe" fill-rule="evenodd" group-id="1,2" node-id="154" stroke="none" target-height="60.320007" target-width="60.32007" target-x="821.9899" target-y="168.73"></path><path d="M 396.91 500.70 C 398.44 499.36 422.04 472.65 434.02 465.50" fill="none" group-id="1,2" node-id="156" stroke="#373435" stroke-linecap="round" stroke-width="1.42" target-height="35.19998" target-width="37.109985" target-x="396.91" target-y="465.5"></path><path d="M 447.48 512.00 C 451.44 507.96 462.87 496.89 468.70 494.27" fill="none" group-id="1,2" node-id="158" stroke="#373435" stroke-linecap="round" stroke-width="1.42" target-height="17.730042" target-width="21.21997" target-x="447.48" target-y="494.26996"></path></g></g></svg>