<?xml version="1.0" standalone="no"?><!DOCTYPE svg PUBLIC "-//W3C//DTD SVG 1.1//EN" "http://www.w3.org/Graphics/SVG/1.1/DTD/svg11.dtd"><svg height="1024" node-id="1" sillyvg="true" template-height="1024" template-width="1024" version="1.1" viewBox="0 0 1024 1024" width="1024" xmlns="http://www.w3.org/2000/svg" xmlns:xlink="http://www.w3.org/1999/xlink"><defs node-id="66"><clipPath id="clippath" node-id="5"><path d="M 0.00 0.00 L 1024.00 0.00 L 1024.00 1024.00 L 0.00 1024.00 Z" fill="#000000" fill-rule="nonzero" node-id="69" stroke="none" target-height="1024" target-width="1024" target-x="0" target-y="0"></path></clipPath></defs><g node-id="229"><g clip-path="url(#clippath)" group-id="1" node-id="75"><path d="M 537.93 196.42 L 972.43 196.42 L 972.43 763.57 L 537.93 763.57 Z" fill="#373435" fill-rule="nonzero" group-id="1,2" node-id="77" stroke="none" target-height="567.15" target-width="434.5" target-x="537.93" target-y="196.42"></path><path d="M 537.93 196.42 L 972.43 196.42 L 972.43 763.57 L 537.93 763.57 Z" fill="none" group-id="1,2" node-id="79" stroke="#373435" stroke-linecap="round" stroke-width="1.42" target-height="567.15" target-width="434.5" target-x="537.93" target-y="196.42"></path><path d="M 972.43 196.42 L 537.93 196.42 L 537.93 175.84 C 537.93 169.38 543.22 164.09 549.68 164.09 L 960.67 164.09 C 967.13 164.09 972.42 169.38 972.42 175.84 L 972.42 196.42 Z" fill="#fefefe" fill-rule="evenodd" group-id="1,2" node-id="81" stroke="none" target-height="32.33" target-width="434.5" target-x="537.93" target-y="164.09"></path><path d="M 972.43 196.42 L 537.93 196.42 L 537.93 175.84 C 537.93 169.38 543.22 164.09 549.68 164.09 L 960.67 164.09 C 967.13 164.09 972.42 169.38 972.42 175.84 L 972.42 196.42 Z" fill="none" group-id="1,2" node-id="83" stroke="#373435" stroke-linecap="round" stroke-width="1.42" target-height="32.33" target-width="434.5" target-x="537.93" target-y="164.09"></path><path d="M 373.82 399.36 L 383.76 312.52 L 287.38 355.20 L 373.82 399.36 Z" fill="#373435" fill-rule="evenodd" group-id="1,2" node-id="85" stroke="none" target-height="86.84" target-width="96.380005" target-x="287.38" target-y="312.52"></path><path d="M 373.82 399.36 L 383.76 312.52 L 287.38 355.20 L 373.82 399.36 Z" fill="none" group-id="1,2" node-id="87" stroke="#373435" stroke-linecap="round" stroke-width="1.42" target-height="86.84" target-width="96.380005" target-x="287.38" target-y="312.52"></path><path d="M 437.43 332.91 L 385.26 309.81 L 403.95 203.17 C 407.24 180.09 435.84 173.04 453.35 196.17 C 458.45 202.90 469.75 230.50 473.90 239.69 C 482.33 258.38 488.70 276.67 479.68 285.29 C 474.45 290.28 463.87 295.25 443.80 284.97 L 437.44 332.91 Z" fill="#fefefe" fill-rule="evenodd" group-id="1,2" node-id="89" stroke="none" target-height="159.87003" target-width="103.44" target-x="385.26" target-y="173.03998"></path><path d="M 437.43 332.91 L 385.26 309.81 L 403.95 203.17 C 407.24 180.09 435.84 173.04 453.35 196.17 C 458.45 202.90 469.75 230.50 473.90 239.69 C 482.33 258.38 488.70 276.67 479.68 285.29 C 474.45 290.28 463.87 295.25 443.80 284.97 L 437.44 332.91 Z" fill="none" group-id="1,2" node-id="91" stroke="#373435" stroke-linecap="round" stroke-width="1.42" target-height="159.87003" target-width="103.44" target-x="385.26" target-y="173.03998"></path><path d="M 460.12 257.28 C 454.32 258.23 439.78 261.33 434.78 245.53" fill="none" group-id="1,2" node-id="93" stroke="#373435" stroke-linecap="round" stroke-width="1.42" target-height="15.800003" target-width="25.339996" target-x="434.78" target-y="245.52998"></path><path d="M 54.87 921.74 L 910.34 921.74" fill="none" group-id="1,2" node-id="95" stroke="#373435" stroke-linecap="round" stroke-width="1.42" target-height="0" target-width="855.47003" target-x="54.87" target-y="921.74"></path><path d="M 203.99 715.71 C 203.12 717.50 237.13 803.75 238.02 803.75 C 238.19 803.71 325.08 798.94 336.89 798.44 C 367.51 797.16 376.17 785.94 384.15 769.08 C 393.89 748.49 417.01 699.03 416.60 699.03 C 415.85 699.03 439.52 749.57 442.89 769.99 C 448.21 802.25 454.44 844.42 454.60 844.13 L 546.49 844.13 C 542.69 812.00 538.89 796.58 535.09 764.45 C 530.80 728.16 534.04 705.47 519.16 670.57 L 493.42 581.69 L 343.07 545.42 L 291.27 707.88 L 204.00 715.70 Z" fill="#fefefe" fill-rule="evenodd" group-id="1,2" node-id="97" stroke="none" target-height="299" target-width="343.37" target-x="203.12001" target-y="545.42"></path><path d="M 203.99 715.71 C 203.12 717.50 237.13 803.75 238.02 803.75 C 238.19 803.71 325.08 798.94 336.89 798.44 C 367.51 797.16 376.17 785.94 384.15 769.08 C 393.89 748.49 417.01 699.03 416.60 699.03 C 415.85 699.03 439.52 749.57 442.89 769.99 C 448.21 802.25 454.44 844.42 454.60 844.13 L 546.49 844.13 C 542.69 812.00 538.89 796.58 535.09 764.45 C 530.80 728.16 534.04 705.47 519.16 670.57 L 493.42 581.69 L 343.07 545.42 L 291.27 707.88 L 204.00 715.70 Z" fill="none" group-id="1,2" node-id="99" stroke="#373435" stroke-linecap="round" stroke-width="1.42" target-height="299" target-width="343.37" target-x="203.12001" target-y="545.42"></path><path d="M 208.58 715.84 C 205.24 715.44 128.79 721.45 128.79 721.45 C 128.79 721.45 184.94 888.77 185.41 888.60 C 227.56 873.44 197.90 831.81 238.03 803.75 L 208.58 715.84 Z" fill="#d2d3d5" fill-rule="evenodd" group-id="1,2" node-id="101" stroke="none" target-height="173.33002" target-width="109.24002" target-x="128.79" target-y="715.43994"></path><path d="M 208.58 715.84 C 205.24 715.44 128.79 721.45 128.79 721.45 C 128.79 721.45 184.94 888.77 185.41 888.60 C 227.56 873.44 197.90 831.81 238.03 803.75 L 208.58 715.84 Z" fill="none" group-id="1,2" node-id="103" stroke="#373435" stroke-linecap="round" stroke-width="1.42" target-height="173.33002" target-width="109.24002" target-x="128.79" target-y="715.43994"></path><path d="M 454.59 844.06 C 453.90 847.08 449.01 921.76 449.01 921.76 C 449.01 921.76 629.59 921.99 629.51 921.48 C 622.23 875.44 572.09 891.21 546.49 844.13 L 454.59 844.05 Z" fill="#d2d3d5" fill-rule="evenodd" group-id="1,2" node-id="105" stroke="none" target-height="77.94" target-width="180.58005" target-x="449.00998" target-y="844.05005"></path><path d="M 454.59 844.06 C 453.90 847.08 449.01 921.76 449.01 921.76 C 449.01 921.76 629.59 921.99 629.51 921.48 C 622.23 875.44 572.09 891.21 546.49 844.13 L 454.59 844.05 Z" fill="none" group-id="1,2" node-id="107" stroke="#373435" stroke-linecap="round" stroke-width="1.42" target-height="77.94" target-width="180.58005" target-x="449.00998" target-y="844.05005"></path><path d="M 396.03 743.22 L 432.49 667.32" fill="none" group-id="1,2" node-id="109" stroke="#373435" stroke-linecap="round" stroke-width="1.42" target-height="75.8999" target-width="36.45999" target-x="396.03" target-y="667.32"></path><path d="M 384.36 309.48 C 383.59 311.70 347.20 523.39 342.17 548.24 C 342.10 548.60 495.55 592.17 495.29 589.72 C 491.61 554.95 455.60 414.03 443.59 347.95 C 443.02 344.82 440.32 330.12 427.49 325.37 C 418.75 322.13 384.37 309.47 384.37 309.47 Z" fill="#373435" fill-rule="evenodd" group-id="1,2" node-id="111" stroke="none" target-height="282.69998" target-width="153.44995" target-x="342.1" target-y="309.47"></path><path d="M 384.36 309.48 C 383.59 311.70 347.20 523.39 342.17 548.24 C 342.10 548.60 495.55 592.17 495.29 589.72 C 491.61 554.95 455.60 414.03 443.59 347.95 C 443.02 344.82 440.32 330.12 427.49 325.37 C 418.75 322.13 384.37 309.47 384.37 309.47 Z" fill="none" group-id="1,2" node-id="113" stroke="#373435" stroke-linecap="round" stroke-width="1.42" target-height="282.69998" target-width="153.44995" target-x="342.1" target-y="309.47"></path><path d="M 596.69 527.02 L 420.30 349.65 L 437.76 335.37 L 634.94 482.97 L 596.69 527.02 Z" fill="#373435" fill-rule="evenodd" group-id="1,2" node-id="115" stroke="none" target-height="191.65002" target-width="214.64001" target-x="420.3" target-y="335.37"></path><path d="M 596.69 527.02 L 420.30 349.65 L 437.76 335.37 L 634.94 482.97 L 596.69 527.02 Z" fill="none" group-id="1,2" node-id="117" stroke="#373435" stroke-linecap="round" stroke-width="1.42" target-height="191.65002" target-width="214.64001" target-x="420.3" target-y="335.37"></path><path d="M 452.92 494.23 L 435.17 401.65" fill="none" group-id="1,2" node-id="119" stroke="#fefefe" stroke-linecap="round" stroke-width="1.42" target-height="92.57999" target-width="17.75003" target-x="435.17" target-y="401.65"></path><path d="M 401.77 215.59 L 512.00 187.02" fill="none" group-id="1,2" node-id="121" stroke="#373435" stroke-linecap="round" stroke-width="1.42" target-height="28.569992" target-width="110.22998" target-x="401.77002" target-y="187.02"></path><path d="M 192.64 618.18 L 285.15 322.62 L 580.71 415.13 L 488.20 710.69 Z" fill="#d2d3d5" fill-rule="nonzero" group-id="1,2,3" node-id="125" stroke="none" target-height="388.0703" target-width="388.0703" target-x="192.63966" target-y="322.6167"></path><path d="M 192.64 618.18 L 285.15 322.62 L 580.71 415.13 L 488.20 710.69 Z" fill="none" group-id="1,2,4" node-id="130" stroke="#373435" stroke-linecap="round" stroke-width="1.42" target-height="388.0703" target-width="388.0703" target-x="192.63966" target-y="322.6167"></path><path d="M 354.34 669.17 L 446.85 373.61 L 742.41 466.12 L 649.90 761.68 Z" fill="#d2d3d5" fill-rule="nonzero" group-id="1,2,5" node-id="135" stroke="none" target-height="388.07037" target-width="388.07037" target-x="354.3393" target-y="373.61285"></path><path d="M 354.34 669.17 L 446.85 373.61 L 742.41 466.12 L 649.90 761.68 Z" fill="none" group-id="1,2,6" node-id="140" stroke="#373435" stroke-linecap="round" stroke-width="1.42" target-height="388.07037" target-width="388.07037" target-x="354.3393" target-y="373.61285"></path><path d="M 488.28 386.36 L 515.43 299.61 L 709.48 360.35 L 682.33 447.10 Z" fill="#d2d3d5" fill-rule="nonzero" group-id="1,2,7" node-id="145" stroke="none" target-height="147.4892" target-width="221.20901" target-x="488.27505" target-y="299.61304"></path><path d="M 488.28 386.36 L 515.43 299.61 L 709.48 360.35 L 682.33 447.10 Z" fill="none" group-id="1,2,8" node-id="150" stroke="#373435" stroke-linecap="round" stroke-width="1.42" target-height="147.4892" target-width="221.20901" target-x="488.27505" target-y="299.61304"></path><path d="M 594.44 419.84 L 621.59 333.09 L 815.65 393.83 L 788.49 480.58 Z" fill="#d2d3d5" fill-rule="nonzero" group-id="1,2,9" node-id="155" stroke="none" target-height="147.4892" target-width="221.20898" target-x="594.4374" target-y="333.09064"></path><path d="M 594.44 419.84 L 621.59 333.09 L 815.65 393.83 L 788.49 480.58 Z" fill="none" group-id="1,2,10" node-id="160" stroke="#373435" stroke-linecap="round" stroke-width="1.42" target-height="147.4892" target-width="221.20898" target-x="594.4374" target-y="333.09064"></path><path d="M 261.96 400.40 C 262.16 395.97 277.57 345.42 277.57 345.42 C 276.18 342.12 272.70 340.46 269.53 339.26 C 259.77 335.55 246.22 342.60 236.38 365.03 C 215.42 412.82 240.47 389.05 245.90 399.76 C 250.09 408.02 261.05 420.22 261.95 400.41 Z" fill="#fefefe" fill-rule="evenodd" group-id="1,2" node-id="163" stroke="none" target-height="84.66998" target-width="62.149994" target-x="215.42001" target-y="335.55"></path><path d="M 261.96 400.40 C 262.16 395.97 277.57 345.42 277.57 345.42 C 276.18 342.12 272.70 340.46 269.53 339.26 C 259.77 335.55 246.22 342.60 236.38 365.03 C 215.42 412.82 240.47 389.05 245.90 399.76 C 250.09 408.02 261.05 420.22 261.95 400.41 Z" fill="none" group-id="1,2" node-id="165" stroke="#373435" stroke-linecap="round" stroke-width="1.42" target-height="84.66998" target-width="62.149994" target-x="215.42001" target-y="335.55"></path><path d="M 219.13 533.51 C 173.66 511.98 195.00 425.45 213.00 394.23 C 226.10 371.51 241.32 367.05 260.66 368.31 C 278.55 369.48 299.67 381.34 307.85 393.29 C 318.33 408.61 316.89 435.24 289.31 430.31 C 289.31 430.31 291.61 430.97 297.03 442.80 C 305.08 460.37 296.90 485.32 274.38 479.74 C 272.52 479.28 286.71 493.40 275.45 510.29 C 261.67 530.96 226.06 512.41 224.46 516.52 C 222.52 521.48 219.26 533.54 219.16 533.49 Z" fill="#fefefe" fill-rule="evenodd" group-id="1,2" node-id="167" stroke="none" target-height="166.48999" target-width="144.66998" target-x="173.66" target-y="367.05"></path><path d="M 219.13 533.51 C 173.66 511.98 195.00 425.45 213.00 394.23 C 226.10 371.51 241.32 367.05 260.66 368.31 C 278.55 369.48 299.67 381.34 307.85 393.29 C 318.33 408.61 316.89 435.24 289.31 430.31 C 289.31 430.31 291.61 430.97 297.03 442.80 C 305.08 460.37 296.90 485.32 274.38 479.74 C 272.52 479.28 286.71 493.40 275.45 510.29 C 261.67 530.96 226.06 512.41 224.46 516.52 C 222.52 521.48 219.26 533.54 219.16 533.49 Z" fill="none" group-id="1,2" node-id="169" stroke="#373435" stroke-linecap="round" stroke-width="1.42" target-height="166.48999" target-width="144.66998" target-x="173.66" target-y="367.05"></path><path d="M 292.75 435.01 C 288.45 427.26 275.65 414.65 241.28 411.85" fill="none" group-id="1,2" node-id="171" stroke="#373435" stroke-linecap="round" stroke-width="1.42" target-height="23.160034" target-width="51.47" target-x="241.28" target-y="411.85"></path><path d="M 275.76 483.20 C 267.51 464.11 239.42 456.71 224.55 456.35" fill="none" group-id="1,2" node-id="173" stroke="#373435" stroke-linecap="round" stroke-width="1.42" target-height="26.849976" target-width="51.20999" target-x="224.55002" target-y="456.35004"></path><path d="M 226.89 516.95 C 222.29 514.33 214.89 511.98 208.95 512.00" fill="none" group-id="1,2" node-id="175" stroke="#373435" stroke-linecap="round" stroke-width="1.42" target-height="4.970001" target-width="17.939987" target-x="208.95001" target-y="511.98"></path><path d="M 720.08 533.94 C 722.41 530.15 738.19 479.62 738.19 479.62 C 741.20 477.66 745.01 478.23 748.30 479.00 C 758.45 481.38 765.67 494.80 761.15 518.90 C 751.51 570.24 744.23 536.52 733.70 542.37 C 725.58 546.88 709.65 550.86 720.08 533.93 Z" fill="#fefefe" fill-rule="evenodd" group-id="1,2" node-id="177" stroke="none" target-height="92.57999" target-width="56.019897" target-x="709.65" target-y="477.66"></path><path d="M 720.08 533.94 C 722.41 530.15 738.19 479.62 738.19 479.62 C 741.20 477.66 745.01 478.23 748.30 479.00 C 758.45 481.38 765.67 494.80 761.15 518.90 C 751.51 570.24 744.23 536.52 733.70 542.37 C 725.58 546.88 709.65 550.86 720.08 533.93 Z" fill="none" group-id="1,2" node-id="179" stroke="#373435" stroke-linecap="round" stroke-width="1.42" target-height="92.57999" target-width="56.019897" target-x="709.65" target-y="477.66"></path><path d="M 680.39 668.25 C 730.09 675.82 761.25 592.15 764.00 556.20 C 765.99 530.03 755.93 517.83 739.25 508.07 C 723.81 499.03 699.69 497.06 686.19 502.40 C 668.90 509.24 655.07 532.14 680.63 543.46 C 680.63 543.46 678.35 542.72 667.21 549.50 C 650.66 559.57 643.34 584.83 665.09 592.80 C 666.89 593.46 647.20 597.23 646.98 617.54 C 646.71 642.38 686.57 646.91 685.58 651.22 C 684.38 656.42 680.28 668.24 680.39 668.25 Z" fill="#fefefe" fill-rule="evenodd" group-id="1,2" node-id="181" stroke="none" target-height="178.76001" target-width="122.64996" target-x="643.34" target-y="497.06"></path><path d="M 680.39 668.25 C 730.09 675.82 761.25 592.15 764.00 556.20 C 765.99 530.03 755.93 517.83 739.25 508.07 C 723.81 499.03 699.69 497.06 686.19 502.40 C 668.90 509.24 655.07 532.14 680.63 543.46 C 680.63 543.46 678.35 542.72 667.21 549.50 C 650.66 559.57 643.34 584.83 665.09 592.80 C 666.89 593.46 647.20 597.23 646.98 617.54 C 646.71 642.38 686.57 646.91 685.58 651.22 C 684.38 656.42 680.28 668.24 680.39 668.25 Z" fill="none" group-id="1,2" node-id="183" stroke="#373435" stroke-linecap="round" stroke-width="1.42" target-height="178.76001" target-width="122.64996" target-x="643.34" target-y="497.06"></path><path d="M 675.13 545.41 C 683.05 541.39 700.73 538.09 730.70 554.98" fill="none" group-id="1,2" node-id="185" stroke="#373435" stroke-linecap="round" stroke-width="1.42" target-height="16.889954" target-width="55.570007" target-x="675.13" target-y="538.09"></path><path d="M 661.99 594.88 C 679.57 583.67 706.94 593.24 719.43 601.25" fill="none" group-id="1,2" node-id="187" stroke="#373435" stroke-linecap="round" stroke-width="1.42" target-height="17.580017" target-width="57.43994" target-x="661.99" target-y="583.67"></path><path d="M 683.32 650.17 C 688.60 650.57 696.03 652.76 700.92 656.10" fill="none" group-id="1,2" node-id="189" stroke="#373435" stroke-linecap="round" stroke-width="1.42" target-height="5.9299927" target-width="17.599976" target-x="683.32" target-y="650.17"></path><path d="M 524.69 441.24 C 547.12 457.41 552.20 488.70 536.03 511.13 C 519.87 533.55 488.58 538.63 466.15 522.47 C 443.72 506.30 438.64 475.02 454.81 452.59 C 470.97 430.16 502.26 425.08 524.69 441.24 Z" fill="#373435" fill-rule="nonzero" group-id="1,2,11" node-id="193" stroke="none" target-height="113.55356" target-width="113.55365" target-x="438.64233" target-y="425.07968"></path><path d="M 524.69 441.24 C 547.12 457.41 552.20 488.70 536.03 511.13 C 519.87 533.55 488.58 538.63 466.15 522.47 C 443.72 506.30 438.64 475.02 454.81 452.59 C 470.97 430.16 502.26 425.08 524.69 441.24 Z" fill="none" group-id="1,2,12" node-id="198" stroke="#373435" stroke-linecap="round" stroke-width="1.42" target-height="113.55356" target-width="113.55365" target-x="438.64233" target-y="425.07968"></path><path d="M 473.87 476.70 L 483.82 498.47 L 520.52 468.62" fill="none" group-id="1,2" node-id="201" stroke="#fefefe" stroke-linecap="round" stroke-width="1.42" target-height="29.850006" target-width="46.650024" target-x="473.87" target-y="468.62"></path><path d="M 657.25 329.65 L 707.58 261.53 L 859.96 374.12 L 809.62 442.24 Z" fill="#d2d3d5" fill-rule="nonzero" group-id="1,2,13" node-id="205" stroke="none" target-height="180.71066" target-width="202.7113" target-x="657.2463" target-y="261.5289"></path><path d="M 657.25 329.65 L 707.58 261.53 L 859.96 374.12 L 809.62 442.24 Z" fill="none" group-id="1,2,14" node-id="210" stroke="#373435" stroke-linecap="round" stroke-width="1.42" target-height="180.71066" target-width="202.7113" target-x="657.2463" target-y="261.5289"></path><path d="M 740.54 391.48 L 790.87 323.36 L 943.25 435.95 L 892.91 504.07 Z" fill="#d2d3d5" fill-rule="nonzero" group-id="1,2,15" node-id="215" stroke="none" target-height="180.71063" target-width="202.71143" target-x="740.5365" target-y="323.35632"></path><path d="M 740.54 391.48 L 790.87 323.36 L 943.25 435.95 L 892.91 504.07 Z" fill="none" group-id="1,2,16" node-id="220" stroke="#373435" stroke-linecap="round" stroke-width="1.42" target-height="180.71063" target-width="202.71143" target-x="740.5365" target-y="323.35632"></path><path d="M 560.74 174.97 C 563.75 174.97 566.18 177.41 566.18 180.41 C 566.18 183.41 563.74 185.85 560.74 185.85 C 557.74 185.85 555.30 183.41 555.30 180.41 C 555.30 177.41 557.74 174.97 560.74 174.97" fill="#373435" fill-rule="evenodd" group-id="1,2" node-id="223" stroke="none" target-height="10.880005" target-width="10.880005" target-x="555.3" target-y="174.97"></path><path d="M 575.98 174.97 C 572.98 174.97 570.54 177.41 570.54 180.41 C 570.54 183.41 572.98 185.85 575.98 185.85 C 578.98 185.85 581.42 183.41 581.42 180.41 C 581.42 177.41 578.98 174.97 575.98 174.97" fill="#373435" fill-rule="evenodd" group-id="1,2" node-id="225" stroke="none" target-height="10.880005" target-width="10.880005" target-x="570.54" target-y="174.97"></path><path d="M 592.11 174.97 C 589.10 174.97 586.67 177.41 586.67 180.41 C 586.67 183.41 589.11 185.85 592.11 185.85 C 595.11 185.85 597.55 183.41 597.55 180.41 C 597.55 177.41 595.11 174.97 592.11 174.97" fill="#373435" fill-rule="evenodd" group-id="1,2" node-id="227" stroke="none" target-height="10.880005" target-width="10.880005" target-x="586.67" target-y="174.97"></path></g></g></svg>