<?xml version="1.0" standalone="no"?><!DOCTYPE svg PUBLIC "-//W3C//DTD SVG 1.1//EN" "http://www.w3.org/Graphics/SVG/1.1/DTD/svg11.dtd"><svg height="1262" node-id="1" sillyvg="true" template-height="1262" template-width="1518" version="1.1" viewBox="0 0 1518 1262" width="1518" xmlns="http://www.w3.org/2000/svg" xmlns:xlink="http://www.w3.org/1999/xlink"><defs node-id="31"><clipPath id="clip-path" node-id="5"><path d="M 40.72 168.11 L 1559.28 168.11 L 1559.28 1431.89 L 40.72 1431.89 Z" fill="#000000" fill-rule="nonzero" id="SVGID" node-id="6" stroke="none" target-height="1263.78" target-width="1518.56" target-x="40.72" target-y="168.11"></path></clipPath></defs><g node-id="147"><g clip-path="url(#clip-path)" group-id="1" node-id="39"><path d="M 1118.36 0.88 C 1133.91 58.12 1136.93 118.03 1127.22 176.54 L 273.53 177.25 C 266.45 110.67 247.32 0.52 348.08 0.35 C 604.84 -0.25 861.60 -0.07 1118.36 0.88 Z M 410.28 113.74 C 420.84 110.81 426.77 99.02 423.53 87.43 C 420.29 75.84 409.13 68.84 398.53 71.80 C 387.93 74.76 382.04 86.51 385.28 98.09 C 388.52 109.67 399.69 116.69 410.28 113.74 Z M 499.35 92.74 C 499.34 81.10 489.90 71.66 478.26 71.67 C 466.62 71.68 457.18 81.12 457.19 92.76 C 457.20 104.40 466.64 113.84 478.28 113.83 C 489.89 113.80 499.28 104.38 499.28 92.77 Z M 551.84 114.87 C 562.28 114.67 570.59 104.51 570.34 92.20 C 570.29 86.45 568.22 80.91 564.50 76.53 C 561.14 72.54 556.19 70.24 550.97 70.25 C 540.52 70.46 532.23 80.61 532.46 92.91 C 532.50 98.67 534.56 104.24 538.28 108.63 C 541.65 112.62 546.60 114.91 551.82 114.90 Z M 551.84 114.87" fill="#8dcafc" fill-rule="nonzero" group-id="1,20" node-id="41" stroke="none" target-height="177.5" target-width="889.60895" target-x="247.32" target-y="-0.25"></path></g></g><g node-id="148"><path d="M 1118.36 0.88 L 1195.92 0.70 C 1223.65 0.58 1239.88 15.28 1244.62 44.79 C 1252.87 96.12 1254.82 144.70 1250.46 190.53 C 1212.54 176.40 1171.67 172.07 1131.64 177.96 L 1127.22 176.54 C 1136.93 118.03 1133.91 58.12 1118.36 0.88 Z M 1118.36 0.88" fill="#63b9fc" fill-rule="nonzero" group-id="2" node-id="47" stroke="none" target-height="189.94997" target-width="136.46008" target-x="1118.36" target-y="0.58000183"></path></g><g node-id="149"><path d="M 1127.22 176.54 L 1131.64 177.96 C 1131.64 251.62 1138.72 335.20 1126.33 407.45 C 1120.33 443.04 1132.18 493.33 1131.64 519.54 C 1128.69 683.30 1130.76 847.04 1137.84 1010.75 L 294.95 1009.51 C 288.15 1009.51 282.40 1007.51 279.37 1004.02 L 273.37 996.94 L 272.13 296.77 L 272.13 203.77 L 273.55 177.21 Z M 495.76 454.16 L 579.69 377.66 C 596.80 362.07 601.11 344.72 592.62 325.60 C 559.50 250.38 419.79 409.22 395.53 433.16 C 378.64 449.91 378.58 466.79 395.35 483.80 C 413.42 502.04 605.19 711.88 593.15 562.95 C 592.63 557.24 589.98 551.93 585.72 548.08 L 496.47 466.62 C 494.63 464.97 493.51 462.67 493.33 460.21 C 493.16 457.94 494.06 455.72 495.76 454.21 Z M 826.61 352.82 C 832.55 331.63 820.20 309.64 799.02 303.68 L 796.29 302.92 C 786.12 300.06 775.23 301.36 766.01 306.53 C 756.80 311.70 750.02 320.32 747.16 330.49 L 681.62 563.70 C 675.67 584.88 688.02 606.86 709.19 612.82 L 711.91 613.60 C 733.10 619.56 755.10 607.22 761.06 586.03 Z M 1000.07 437.16 C 1006.02 441.36 1009.74 448.05 1010.15 455.33 C 1010.56 462.60 1007.64 469.67 1002.20 474.52 C 983.61 491.17 835.75 604.67 954.39 615.52 C 960.15 615.99 965.87 614.19 970.33 610.52 C 1004.90 583.85 1038.23 555.70 1070.33 526.06 C 1109.81 489.58 1151.96 462.30 1097.77 414.32 C 1063.47 384.23 944.28 245.59 911.18 337.84 C 909.33 343.21 910.18 349.15 913.48 353.78 C 933.55 382.94 962.41 410.74 1000.07 437.18 Z M 618.28 732.55 C 618.28 727.34 616.21 722.34 612.53 718.65 C 608.84 714.96 603.84 712.89 598.63 712.89 L 398.54 712.89 C 393.33 712.89 388.33 714.96 384.64 718.65 C 380.96 722.34 378.89 727.34 378.89 732.55 L 378.89 737.55 C 378.92 748.38 387.71 757.15 398.54 757.16 L 598.64 757.16 C 609.49 757.15 618.29 748.35 618.28 737.50 Z M 857.50 823.55 C 857.85 809.76 838.02 798.05 813.19 797.41 C 788.36 796.77 767.94 807.41 767.58 821.19 C 767.22 834.97 787.06 846.67 811.89 847.33 C 836.72 847.99 857.13 837.33 857.50 823.55 Z M 719.74 822.31 C 719.75 816.82 717.58 811.55 713.70 807.65 C 709.83 803.76 704.56 801.57 699.07 801.56 L 399.45 801.03 C 388.01 801.01 378.72 810.27 378.70 821.71 L 378.70 824.54 C 378.69 830.03 380.86 835.30 384.74 839.20 C 388.61 843.09 393.88 845.28 399.37 845.29 L 698.98 845.83 C 710.42 845.84 719.71 836.58 719.74 825.14 Z M 950.82 908.96 C 950.64 896.74 935.02 887.07 915.95 887.35 C 896.88 887.63 881.60 897.80 881.78 910.02 C 881.96 922.24 897.57 931.92 916.66 931.62 C 935.75 931.32 951.01 921.17 950.84 908.96 Z M 538.28 908.65 C 538.23 898.20 529.73 889.75 519.28 889.75 L 398.51 890.18 C 388.05 890.22 379.60 898.72 379.63 909.18 L 379.63 910.59 C 379.70 921.04 388.18 929.47 398.63 929.47 L 519.40 929.05 C 529.86 929.01 538.30 920.51 538.27 910.05 L 538.27 908.64 Z M 834.17 909.48 C 834.19 898.92 825.66 890.35 815.10 890.32 L 611.47 889.97 C 606.39 889.95 601.51 891.95 597.91 895.53 C 594.31 899.11 592.28 903.98 592.28 909.06 L 592.28 910.16 C 592.27 915.23 594.27 920.10 597.85 923.69 C 601.43 927.28 606.29 929.31 611.36 929.32 L 815.00 929.67 C 825.56 929.68 834.13 921.15 834.16 910.59 L 834.16 909.52 Z M 834.17 909.48" fill="#3351c5" fill-rule="nonzero" group-id="3" node-id="52" stroke="none" target-height="834.20996" target-width="879.8301" target-x="272.13" target-y="176.54001"></path></g><g node-id="150"><path d="M 1131.64 177.96 C 1171.67 172.07 1212.55 176.39 1250.46 190.53 L 1251.17 198.67 L 1251.88 296.77 L 1246.75 1013.23 L 1137.84 1010.75 C 1130.76 847.12 1128.69 683.39 1131.64 519.54 C 1132.18 493.33 1120.31 443.04 1126.33 407.45 C 1138.72 335.20 1131.64 251.62 1131.64 177.96 Z M 1131.64 177.96" fill="#2844ae" fill-rule="nonzero" group-id="4" node-id="57" stroke="none" target-height="841.16364" target-width="131.56995" target-x="1120.31" target-y="172.06635"></path></g><g node-id="151"><path d="M 1251.17 198.67 L 1414.97 207.53 C 1327.49 183.80 1377.60 262.60 1374.42 296.77 L 1251.88 296.77 Z M 272.11 203.81 L 272.11 296.81 L 157.72 300.53 C 152.80 300.62 148.87 304.96 148.87 310.28 L 148.16 1000.87 C 148.21 1009.21 153.77 1016.50 161.79 1018.76 C 200.27 1029.49 237.46 1022.23 273.35 996.98 L 279.35 1004.06 C 282.35 1007.51 288.13 1009.55 294.93 1009.55 L 1137.82 1010.79 L 1246.73 1013.27 L 1374.40 1018.40 C 1377.58 1060.30 1370.44 1099.91 1352.97 1137.22 L 88.82 1136.87 C 81.73 1136.87 75.89 1132.44 69.82 1129.08 C 60.84 1106.41 56.29 1088.35 56.18 1074.89 C 55.70 803.72 55.64 532.43 56.00 261.04 C 56.00 223.86 74.30 205.15 110.90 204.91 Z M 272.11 203.81" fill="#7a6d79" fill-rule="nonzero" group-id="5" node-id="62" stroke="none" target-height="953.42004" target-width="1359.33" target-x="55.640003" target-y="183.80002"></path></g><g node-id="152"><path d="M 1414.97 207.53 C 1449.20 213.20 1466.73 231.55 1467.56 262.60 C 1473.46 477.57 1471.46 768.22 1461.56 1134.53 L 1410.56 1138.60 L 1353.01 1137.18 C 1370.47 1099.85 1377.61 1060.24 1374.44 1018.36 L 1374.44 296.77 C 1377.62 262.60 1327.51 183.77 1414.99 207.53 Z M 1414.97 207.53" fill="#685e67" fill-rule="nonzero" group-id="6" node-id="67" stroke="none" target-height="954.82996" target-width="145.94995" target-x="1327.51" target-y="183.76999"></path></g><g node-id="153"><g clip-path="url(#clip-path)" group-id="7" id="sillyvg_g_1" node-id="70"><path d="M 272.11 296.77 L 273.35 996.94 C 237.46 1022.19 200.28 1029.45 161.79 1018.72 C 153.76 1016.47 148.20 1009.17 148.16 1000.83 L 148.87 310.24 C 148.87 304.92 152.80 300.58 157.72 300.49 Z M 272.11 296.77" fill="#ddebf0" fill-rule="nonzero" group-id="7,21" node-id="74" stroke="none" target-height="732.6835" target-width="125.19002" target-x="148.15999" target-y="296.77"></path><path d="M 1251.88 296.77 L 1374.42 296.77 L 1374.42 1018.36 L 1246.75 1013.23 Z M 69.88 1129.04 C 75.88 1132.40 81.74 1136.83 88.88 1136.83 L 1353.03 1137.18 L 1410.58 1138.60 C 1431.12 1178.72 1429.35 1219.51 1405.27 1260.96 C 969.54 1253.17 532.88 1252.17 95.27 1257.96 C 23.56 1259.02 -14.87 1224.31 5.49 1151.18 C 7.02 1146.21 11.62 1142.84 16.82 1142.86 C 35.41 1142.82 53.69 1138.07 69.95 1129.05 Z M 69.88 1129.04" fill="#cbe5e6" fill-rule="nonzero" group-id="7,22" node-id="79" stroke="none" target-height="964.18994" target-width="1445.99" target-x="-14.870003" target-y="296.77"></path><path d="M 1461.54 1134.53 L 1502.45 1141.96 C 1507.78 1142.80 1512.05 1146.80 1513.24 1152.06 C 1530.70 1234.33 1494.70 1270.63 1405.24 1260.96 C 1429.32 1219.52 1431.09 1178.73 1410.55 1138.60 Z M 1461.54 1134.53" fill="#a8d3d8" fill-rule="nonzero" group-id="7,23" node-id="84" stroke="none" target-height="136.09668" target-width="125.45996" target-x="1405.24" target-y="1134.53"></path></g></g><g node-id="154"><path d="M 398.55 71.80 C 388.00 74.74 382.07 86.53 385.28 98.16 C 388.49 109.79 399.69 116.75 410.28 113.81 C 420.87 110.87 426.76 99.08 423.53 87.49 C 420.30 75.90 409.12 68.90 398.53 71.85 Z M 398.55 71.80" fill="#f1eff2" fill-rule="nonzero" group-id="8" node-id="90" stroke="none" target-height="47.849976" target-width="44.690002" target-x="382.07" target-y="68.900024"></path></g><g node-id="155"><path d="M 457.15 92.77 C 457.15 102.31 463.56 110.66 472.78 113.13 C 481.99 115.60 491.72 111.57 496.49 103.30 C 501.26 95.04 499.88 84.61 493.14 77.86 C 486.39 71.11 475.95 69.74 467.69 74.51 C 461.17 78.28 457.15 85.24 457.15 92.77 Z M 457.15 92.77" fill="#f1eff2" fill-rule="nonzero" group-id="9" node-id="95" stroke="none" target-height="45.856506" target-width="44.106323" target-x="457.15" target-y="69.739746"></path></g><g node-id="156"><path d="M 550.95 70.30 C 540.49 70.50 532.20 80.65 532.44 92.97 C 532.68 105.29 541.34 115.11 551.81 114.91 C 562.28 114.71 570.56 104.56 570.28 92.24 C 570.00 79.92 561.38 70.09 550.91 70.30 Z M 550.95 70.30" fill="#f1eff2" fill-rule="nonzero" group-id="10" node-id="100" stroke="none" target-height="45.020035" target-width="38.360107" target-x="532.19995" target-y="70.08998"></path></g><g node-id="157"><path d="M 496.47 466.59 L 585.72 548.05 C 589.98 551.90 592.63 557.21 593.15 562.92 C 605.15 711.85 413.42 502.01 395.35 483.77 C 378.59 466.77 378.65 449.89 395.53 433.13 C 419.79 409.22 559.53 250.38 592.62 325.64 C 601.12 344.76 596.81 362.11 579.69 377.70 L 495.76 454.16 C 494.05 455.67 493.15 457.89 493.33 460.16 C 493.51 462.62 494.63 464.91 496.47 466.56 Z M 496.47 466.59" fill="#f1eff2" fill-rule="nonzero" group-id="11" node-id="105" stroke="none" target-height="461.46997" target-width="226.56003" target-x="378.59" target-y="250.38"></path></g><g node-id="158"><path d="M 796.28 302.91 L 799.01 303.68 C 824.58 310.86 833.77 327.24 826.58 352.81 L 761.07 586.02 C 753.88 611.59 737.50 620.78 711.93 613.59 L 709.20 612.83 C 683.63 605.64 674.44 589.26 681.63 563.69 L 747.17 330.48 C 754.36 304.93 770.73 295.74 796.28 302.91 Z M 796.28 302.91" fill="#f1eff2" fill-rule="nonzero" group-id="12" node-id="110" stroke="none" target-height="325.03333" target-width="159.32996" target-x="674.44336" target-y="295.74335"></path></g><g node-id="159"><path d="M 1000.07 437.16 C 962.41 410.70 933.55 382.90 913.48 353.76 C 910.18 349.13 909.33 343.19 911.18 337.82 C 944.30 245.56 1063.47 384.21 1097.82 414.32 C 1152.01 462.32 1109.82 489.57 1070.38 526.05 C 1038.29 555.67 1004.96 583.83 970.38 610.52 C 965.91 614.18 960.20 615.97 954.44 615.52 C 835.80 604.72 983.66 491.22 1002.25 474.52 C 1007.69 469.67 1010.61 462.60 1010.20 455.33 C 1009.79 448.05 1006.07 441.36 1000.12 437.16 Z M 1000.07 437.16" fill="#f1eff2" fill-rule="nonzero" group-id="13" node-id="115" stroke="none" target-height="370.41425" target-width="316.20996" target-x="835.80005" target-y="245.56"></path></g><g node-id="160"><path d="M 398.54 712.89 L 598.64 712.89 C 611.74 712.89 618.29 719.44 618.29 732.55 L 618.29 737.55 C 618.28 750.62 611.73 757.16 598.64 757.16 L 398.54 757.16 C 385.44 757.16 378.89 750.61 378.89 737.50 L 378.89 732.50 C 378.89 719.39 385.44 712.83 398.54 712.84 Z M 398.54 712.89" fill="#fddd44" fill-rule="nonzero" group-id="14" node-id="120" stroke="none" target-height="44.32672" target-width="239.40009" target-x="378.88995" target-y="712.8333"></path></g><g node-id="161"><path d="M 767.59 821.16 C 767.23 834.95 787.06 846.65 811.90 847.30 C 836.74 847.95 857.15 837.30 857.51 823.52 C 857.87 809.74 838.03 798.03 813.20 797.39 C 788.37 796.75 767.95 807.39 767.59 821.16 Z M 767.59 821.16" fill="#fc9743" fill-rule="nonzero" group-id="15" node-id="125" stroke="none" target-height="51.19983" target-width="90.64014" target-x="767.23" target-y="796.7501"></path></g><g node-id="162"><path d="M 399.47 800.99 L 699.08 801.51 C 712.89 801.51 719.79 808.43 719.77 822.27 L 719.77 825.10 C 719.77 838.91 712.85 845.80 699.02 845.78 L 399.40 845.26 C 385.59 845.26 378.69 838.34 378.72 824.51 L 378.72 821.67 C 378.72 807.86 385.64 800.97 399.47 800.99 Z M 399.47 800.99" fill="#fc9743" fill-rule="nonzero" group-id="16" node-id="130" stroke="none" target-height="44.83008" target-width="341.0967" target-x="378.69333" target-y="800.97"></path></g><g node-id="163"><path d="M 881.79 909.99 C 881.99 922.21 897.60 931.87 916.66 931.57 C 935.72 931.27 951.04 921.12 950.84 908.90 C 950.64 896.68 935.04 887.01 915.97 887.31 C 896.90 887.61 881.60 897.76 881.79 909.99 Z M 881.79 909.99" fill="#28d1b3" fill-rule="nonzero" group-id="17" node-id="135" stroke="none" target-height="44.859985" target-width="69.43994" target-x="881.6" target-y="887.01"></path></g><g node-id="164"><path d="M 398.47 890.16 L 519.24 889.73 C 531.87 889.69 538.20 895.98 538.24 908.61 L 538.24 910.03 C 538.28 922.70 531.99 929.03 519.36 929.03 L 398.59 929.45 C 385.96 929.49 379.63 923.20 379.59 910.57 L 379.59 909.16 C 379.55 896.53 385.84 890.20 398.47 890.16 Z M 398.47 890.16" fill="#28d1b3" fill-rule="nonzero" group-id="18" node-id="140" stroke="none" target-height="39.80005" target-width="158.73001" target-x="379.55002" target-y="889.69"></path></g><path d="M 611.43 889.97 L 815.06 890.32 C 827.81 890.32 834.18 896.71 834.15 909.48 L 834.15 910.54 C 834.15 923.29 827.77 929.66 815.00 929.63 L 611.35 929.28 C 598.64 929.26 592.28 922.89 592.28 910.16 L 592.28 909.10 C 592.28 896.34 598.67 889.98 611.44 890.01 Z M 611.43 889.97" fill="#28d1b3" fill-rule="nonzero" group-id="19" node-id="145" stroke="none" target-height="39.686584" target-width="241.8966" target-x="592.28" target-y="889.9701"></path></svg>