<?xml version="1.0" standalone="no"?><!DOCTYPE svg PUBLIC "-//W3C//DTD SVG 1.1//EN" "http://www.w3.org/Graphics/SVG/1.1/DTD/svg11.dtd"><svg height="1422" node-id="1" sillyvg="true" template-height="1422" template-width="1533" version="1.1" viewBox="0 0 1533 1422" width="1533" xmlns="http://www.w3.org/2000/svg" xmlns:xlink="http://www.w3.org/1999/xlink"><defs node-id="25"><clipPath id="clip-path" node-id="5"><path d="M 33.58 79.22 L 1566.42 79.22 L 1566.42 1504.40 L 33.58 1504.40 Z" fill="#000000" fill-rule="nonzero" id="SVGID" node-id="6" stroke="none" target-height="1425.18" target-width="1532.8398" target-x="33.58" target-y="79.22"></path></clipPath></defs><g node-id="113"><path d="M 1213.92 205.49 L 1178.10 206.93 L 1119.86 205.49 C 1125.96 170.38 1121.19 137.48 1105.54 106.78 C 1103.03 101.88 1097.96 98.83 1092.46 98.89 L 432.81 99.25 C 427.25 99.25 422.24 102.59 420.09 107.71 C 406.71 138.62 402.35 169.96 407.02 201.71 L 358.46 206.91 L 313.68 205.47 C 309.74 82.57 320.84 0.34 463.45 0.34 L 1055.19 -0.02 C 1187.59 -0.02 1237.75 79.16 1213.92 205.47 Z M 1213.92 205.49" fill="#7a6d79" fill-rule="nonzero" group-id="1" node-id="33" stroke="none" target-height="206.95" target-width="928.01" target-x="309.74" target-y="-0.020004272"></path></g><g node-id="114"><path d="M 1119.86 205.49 C 1067.79 213.49 1048.38 244.84 1061.64 299.55 C 867.32 307.91 672.99 308.15 478.64 300.26 C 488.57 240.43 464.69 207.58 407.02 201.71 C 402.35 169.94 406.71 138.59 420.09 107.65 C 422.25 102.54 427.26 99.23 432.81 99.23 L 1092.46 98.87 C 1097.96 98.81 1103.03 101.86 1105.54 106.76 C 1121.18 137.43 1125.95 170.33 1119.86 205.47 Z M 1119.86 205.49" fill="#ffffff" fill-rule="nonzero" group-id="2" node-id="38" stroke="none" target-height="209.33792" target-width="723.6" target-x="402.35336" target-y="98.80874"></path></g><g node-id="115"><path d="M 407.02 201.71 C 464.70 207.57 488.59 240.41 478.68 300.24 L 385.34 304.01 C 393.10 265.43 384.14 233.06 358.46 206.91 Z M 407.02 201.71" fill="#fcd430" fill-rule="nonzero" group-id="3" node-id="43" stroke="none" target-height="102.29999" target-width="130.12665" target-x="358.46" target-y="201.70999"></path></g><g node-id="116"><path d="M 313.68 205.49 L 358.46 206.93 C 384.14 233.08 393.10 265.44 385.34 304.03 L 268.89 304.03 C 245.37 251.23 260.30 218.38 313.68 205.49 Z M 1119.86 205.49 L 1178.10 206.93 L 1187.10 304.03 L 1061.63 299.55 C 1048.38 244.85 1067.79 213.50 1119.85 205.49 Z M 1119.86 205.49" fill="#fde265" fill-rule="nonzero" group-id="4" node-id="48" stroke="none" target-height="98.54001" target-width="941.73" target-x="245.37001" target-y="205.48999"></path></g><g node-id="117"><g clip-path="url(#clip-path)" group-id="5" id="sillyvg_g_0" node-id="51"><path d="M 1178.10 206.93 L 1213.92 205.49 C 1268.26 210.50 1290.42 242.09 1280.39 300.26 L 1187.05 304.03 Z M 1178.10 206.93" fill="#fcd430" fill-rule="nonzero" group-id="5,14" node-id="55" stroke="none" target-height="98.54001" target-width="112.31665" target-x="1178.1" target-y="205.48999"></path><path d="M 478.68 300.26 C 673.00 308.15 867.33 307.91 1061.68 299.55 L 1187.09 304.03 L 1280.43 300.26 L 1390.97 303.13 C 1407.97 335.91 1423.57 352.04 1425.37 391.81 C 1431.09 516.63 1425.48 641.71 1408.63 765.52 C 1206.22 817.37 1003.72 868.85 801.12 919.95 C 778.12 925.80 753.99 925.56 731.12 919.24 C 495.94 855.55 259.51 796.79 21.84 742.95 C 0.69 615.52 -5.10 493.33 4.46 376.40 C 13.05 272.71 196.33 305.10 268.89 304.03 L 385.34 304.03 Z M 663.02 648.89 C 619.55 673.39 614.71 701.16 648.51 732.20 C 652.76 736.08 658.34 738.20 664.10 738.11 L 828.74 738.47 L 873.53 739.91 L 672.16 744.71 C 670.16 744.74 668.29 745.75 667.16 747.40 C 666.08 748.99 665.94 751.04 666.79 752.77 C 712.29 850.77 839.85 822.64 886.25 739.16 C 924.11 701.16 919.87 671.06 873.53 648.86 C 832.33 555.86 698.32 549.43 663.02 648.86 Z M 663.02 648.89" fill="#918191" fill-rule="nonzero" group-id="5,15" node-id="60" stroke="none" target-height="653.09375" target-width="1436.1859" target-x="-5.0999985" target-y="272.71"></path><path d="M 1390.93 303.13 C 1468.15 284.67 1529.93 309.22 1531.93 395.03 C 1534.84 515.56 1529.83 636.16 1516.93 756.03 C 1480.62 750.72 1443.56 753.97 1408.73 765.52 C 1425.54 641.71 1431.09 516.63 1425.33 391.81 C 1423.53 352.04 1407.95 335.91 1390.93 303.13 Z M 1390.93 303.13" fill="#7a6d79" fill-rule="nonzero" group-id="5,16" node-id="65" stroke="none" target-height="480.85004" target-width="143.91394" target-x="1390.9302" target-y="284.66998"></path><path d="M 1408.63 765.52 C 1443.46 753.97 1480.52 750.72 1516.83 756.03 C 1514.83 824.34 1512.38 1011.31 1509.49 1316.96 C 1508.64 1399.24 1463.85 1433.34 1375.13 1419.26 C 1368.19 1418.05 1363.83 1415.32 1362.04 1411.02 C 1360.56 1407.14 1363.04 1401.18 1368.31 1396.15 C 1397.34 1368.32 1403.85 1334.45 1387.84 1294.56 L 1392.32 1213.95 C 1400.34 1094.96 1400.78 975.58 1393.63 856.53 C 1393.54 854.36 1392.47 852.35 1390.72 851.06 C 1388.97 849.77 1386.73 849.34 1384.63 849.90 L 798.82 999.71 C 778.28 1005.09 756.95 1004.97 734.82 999.35 L 28.29 820.88 L 21.84 742.95 C 259.47 796.74 495.89 855.50 731.11 919.24 C 753.98 925.56 778.11 925.80 801.11 919.95 C 1003.74 868.85 1206.24 817.37 1408.63 765.52 Z M 1408.63 765.52" fill="#685e67" fill-rule="nonzero" group-id="5,17" node-id="70" stroke="none" target-height="690.38995" target-width="1494.9901" target-x="21.84" target-y="742.95"></path></g></g><g node-id="118"><path d="M 28.29 820.88 L 734.86 999.32 C 756.96 1004.93 778.29 1005.05 798.86 999.68 L 1384.63 849.90 C 1386.73 849.34 1388.97 849.77 1390.72 851.06 C 1392.47 852.35 1393.54 854.36 1393.63 856.53 C 1400.80 975.58 1400.37 1094.96 1392.37 1213.95 L 1375.89 1196.03 C 1350.93 1178.70 1323.82 1174.46 1294.55 1183.31 L 1133.14 1182.77 C 1108.77 1182.77 1096.83 1194.65 1097.31 1218.42 L 1098.20 1274.14 C 1098.40 1290.44 1111.89 1303.53 1128.48 1303.53 L 1303.48 1302.80 C 1328.81 1307.82 1352.70 1304.84 1375.15 1293.85 L 1387.86 1294.56 C 1403.86 1334.46 1397.35 1368.32 1368.33 1396.15 C 1363.11 1401.15 1360.58 1407.15 1362.06 1411.02 C 1363.85 1415.32 1368.21 1418.02 1375.15 1419.26 C 827.65 1412.93 412.61 1411.98 130.02 1416.39 C 41.90 1417.82 27.75 1375.71 27.39 1295.64 C 26.44 1137.39 26.74 979.14 28.29 820.88 Z M 28.29 820.88" fill="#7a6d79" fill-rule="nonzero" group-id="6" node-id="76" stroke="none" target-height="598.38" target-width="1377.4166" target-x="26.443335" target-y="820.88"></path></g><g node-id="119"><path d="M 1375.88 1196.03 C 1382.34 1228.34 1382.09 1261.63 1375.17 1293.85 C 1352.72 1304.83 1328.83 1307.81 1303.50 1302.80 C 1314.13 1261.24 1311.13 1221.41 1294.50 1183.31 C 1323.76 1174.48 1350.87 1178.72 1375.84 1196.03 Z M 1375.88 1196.03" fill="#fcd430" fill-rule="nonzero" group-id="7" node-id="81" stroke="none" target-height="133.33008" target-width="87.83557" target-x="1294.5" target-y="1174.4833"></path></g><g node-id="120"><path d="M 1294.54 1183.31 C 1311.15 1221.42 1314.15 1261.25 1303.54 1302.80 L 1128.54 1303.53 C 1111.95 1303.53 1098.46 1290.44 1098.26 1274.14 L 1097.37 1218.42 C 1096.88 1194.65 1108.82 1182.77 1133.20 1182.77 Z M 1294.54 1183.31" fill="#fce783" fill-rule="nonzero" group-id="8" node-id="86" stroke="none" target-height="120.75989" target-width="217.2699" target-x="1096.8767" target-y="1182.77"></path></g><g node-id="121"><path d="M 1375.88 1196.03 L 1392.36 1213.95 L 1387.88 1294.56 L 1375.17 1293.85 C 1382.09 1261.63 1382.34 1228.34 1375.88 1196.03 Z M 1375.88 1196.03" fill="#a69ca7" fill-rule="nonzero" group-id="9" node-id="91" stroke="none" target-height="98.53003" target-width="17.189941" target-x="1375.17" target-y="1196.0299"></path></g><g node-id="122"><path d="M 873.53 648.89 C 855.91 643.74 837.11 644.24 819.79 650.33 L 663.02 648.89 C 698.32 549.46 832.33 555.89 873.53 648.89 Z M 873.53 648.89" fill="#685e67" fill-rule="nonzero" group-id="10" node-id="96" stroke="none" target-height="100.869995" target-width="210.51001" target-x="663.02" target-y="549.46"></path></g><g node-id="123"><path d="M 873.53 648.89 C 919.88 671.11 924.12 701.21 886.25 739.19 L 873.53 739.91 L 828.74 738.47 C 839.85 707.18 836.85 677.80 819.74 650.33 C 837.06 644.25 855.86 643.74 873.48 648.89 Z M 873.53 648.89" fill="#fcd430" fill-rule="nonzero" group-id="11" node-id="101" stroke="none" target-height="96.16748" target-width="104.37665" target-x="819.74" target-y="643.74255"></path></g><g node-id="124"><path d="M 663.02 648.89 L 819.79 650.33 C 836.86 677.79 839.86 707.17 828.79 738.47 L 664.15 738.11 C 658.39 738.20 652.81 736.08 648.56 732.20 C 614.76 701.15 619.60 673.38 663.07 648.89 Z M 663.02 648.89" fill="#fde265" fill-rule="nonzero" group-id="12" node-id="106" stroke="none" target-height="89.58002" target-width="225.10333" target-x="614.76" target-y="648.89"></path></g><path d="M 873.53 739.91 L 886.25 739.19 C 839.85 822.67 712.25 850.80 666.79 752.80 C 665.94 751.07 666.08 749.02 667.16 747.43 C 668.29 745.78 670.16 744.77 672.16 744.74 Z M 873.53 739.91" fill="#685e67" fill-rule="nonzero" group-id="13" node-id="111" stroke="none" target-height="111.61005" target-width="220.3117" target-x="665.9383" target-y="739.19"></path></svg>